solid OpenSCAD_Model
  facet normal -1 0 0
    outer loop
      vertex -44.15 -12.5 0
      vertex -44.15 -12.5 25
      vertex -44.15 -7.5 0
    endloop
  endfacet
  facet normal -1 0 0
    outer loop
      vertex -44.15 -7.5 20.5
      vertex -44.15 -12.5 25
      vertex -44.15 12.5 25
    endloop
  endfacet
  facet normal -1 0 0
    outer loop
      vertex -44.15 -7.5 0
      vertex -44.15 -12.5 25
      vertex -44.15 -7.5 20.5
    endloop
  endfacet
  facet normal -1 0 0
    outer loop
      vertex -44.15 -7.5 20.5
      vertex -44.15 12.5 25
      vertex -44.15 12.5 20.5
    endloop
  endfacet
  facet normal 0 -1 0
    outer loop
      vertex -32.17 -12.5 8.29661
      vertex -44.15 -12.5 0
      vertex 44.15 -12.5 0
    endloop
  endfacet
  facet normal 0 -1 0
    outer loop
      vertex -16.35 -12.5 24.1778
      vertex -25.9 -12.5 25
      vertex 44.15 -12.5 0
    endloop
  endfacet
  facet normal 0 -1 0
    outer loop
      vertex -16.35 -12.5 24.1778
      vertex -17.2 -12.5 25.65
      vertex -25.9 -12.5 25
    endloop
  endfacet
  facet normal 0 -1 0
    outer loop
      vertex -44.15 -12.5 25
      vertex -44.15 -12.5 0
      vertex -36.6902 -12.5 9.09365
    endloop
  endfacet
  facet normal 0 -1 0
    outer loop
      vertex -31.55 -12.5 10
      vertex -32.17 -12.5 8.29661
      vertex 44.15 -12.5 0
    endloop
  endfacet
  facet normal 0 -1 0
    outer loop
      vertex -44.15 -12.5 25
      vertex -36.6902 -12.5 9.09365
      vertex -36.6902 -12.5 10.9064
    endloop
  endfacet
  facet normal 0 -1 0
    outer loop
      vertex -32.17 -12.5 11.7034
      vertex -31.55 -12.5 10
      vertex 44.15 -12.5 0
    endloop
  endfacet
  facet normal 0 -1 0
    outer loop
      vertex -44.15 -12.5 25
      vertex -36.6902 -12.5 10.9064
      vertex -35.525 -12.5 12.295
    endloop
  endfacet
  facet normal 0 -1 0
    outer loop
      vertex 0.460168 -12.5 7.39026
      vertex -33.7398 -12.5 12.6097
      vertex 44.15 -12.5 0
    endloop
  endfacet
  facet normal 0 -1 0
    outer loop
      vertex -44.15 -12.5 25
      vertex -35.525 -12.5 12.295
      vertex -33.7398 -12.5 12.6097
    endloop
  endfacet
  facet normal 0 -1 0
    outer loop
      vertex -14.65 -12.5 58.4722
      vertex -13.8 -12.5 57
      vertex 25.9 -12.5 62.3
    endloop
  endfacet
  facet normal 0 -1 0
    outer loop
      vertex -33.7398 -12.5 7.39026
      vertex -44.15 -12.5 0
      vertex -32.17 -12.5 8.29661
    endloop
  endfacet
  facet normal 0 -1 0
    outer loop
      vertex -35.525 -12.5 7.70503
      vertex -44.15 -12.5 0
      vertex -33.7398 -12.5 7.39026
    endloop
  endfacet
  facet normal 0 -1 0
    outer loop
      vertex -36.6902 -12.5 9.09365
      vertex -44.15 -12.5 0
      vertex -35.525 -12.5 7.70503
    endloop
  endfacet
  facet normal 0 -1 0
    outer loop
      vertex -14.65 -12.5 24.1778
      vertex -16.35 -12.5 24.1778
      vertex 44.15 -12.5 0
    endloop
  endfacet
  facet normal 0 -1 0
    outer loop
      vertex -9.30369 -12.5 34.3905
      vertex -10.5058 -12.5 36.4725
      vertex -25.9 -12.5 25
    endloop
  endfacet
  facet normal 0 -1 0
    outer loop
      vertex 31.7098 -12.5 9.09365
      vertex 16.35 -12.5 24.1778
      vertex 14.65 -12.5 24.1778
    endloop
  endfacet
  facet normal 0 -1 0
    outer loop
      vertex -16.35 -12.5 27.1222
      vertex -25.9 -12.5 25
      vertex -17.2 -12.5 25.65
    endloop
  endfacet
  facet normal 0 -1 0
    outer loop
      vertex 17.2 -12.5 25.65
      vertex 16.35 -12.5 24.1778
      vertex 25.9 -12.5 25
    endloop
  endfacet
  facet normal 0 -1 0
    outer loop
      vertex -9.30369 -12.5 34.3905
      vertex -25.9 -12.5 25
      vertex -16.35 -12.5 27.1222
    endloop
  endfacet
  facet normal 0 -1 0
    outer loop
      vertex 14.65 -12.5 27.1222
      vertex 16.35 -12.5 27.1222
      vertex 1.20208 -12.5 29.713
    endloop
  endfacet
  facet normal 0 -1 0
    outer loop
      vertex 32.875 -12.5 7.70503
      vertex -14.65 -12.5 24.1778
      vertex 44.15 -12.5 0
    endloop
  endfacet
  facet normal 0 -1 0
    outer loop
      vertex -17.2 -12.5 57
      vertex -25.9 -12.5 62.3
      vertex -16.35 -12.5 55.5278
    endloop
  endfacet
  facet normal 0 -1 0
    outer loop
      vertex -16.35 -12.5 58.4722
      vertex -25.9 -12.5 62.3
      vertex -17.2 -12.5 57
    endloop
  endfacet
  facet normal 0 -1 0
    outer loop
      vertex 25.9 -12.5 62.3
      vertex -25.9 -12.5 62.3
      vertex -16.35 -12.5 58.4722
    endloop
  endfacet
  facet normal 0 -1 0
    outer loop
      vertex -13.8 -12.5 57
      vertex -14.65 -12.5 55.5278
      vertex 25.9 -12.5 62.3
    endloop
  endfacet
  facet normal 0 -1 0
    outer loop
      vertex 25.9 -12.5 62.3
      vertex -16.35 -12.5 58.4722
      vertex -14.65 -12.5 58.4722
    endloop
  endfacet
  facet normal 0 -1 0
    outer loop
      vertex 1.20208 -12.5 52.587
      vertex 3.55369 -12.5 52.0871
      vertex 13.8 -12.5 57
    endloop
  endfacet
  facet normal 0 -1 0
    outer loop
      vertex -10.5058 -12.5 36.4725
      vertex -11.2487 -12.5 38.759
      vertex -25.9 -12.5 25
    endloop
  endfacet
  facet normal 0 -1 0
    outer loop
      vertex -33.7398 -12.5 12.6097
      vertex -32.17 -12.5 11.7034
      vertex 44.15 -12.5 0
    endloop
  endfacet
  facet normal 0 -1 0
    outer loop
      vertex 16.35 -12.5 55.5278
      vertex 9.30369 -12.5 47.9095
      vertex 25.9 -12.5 62.3
    endloop
  endfacet
  facet normal 0 -1 0
    outer loop
      vertex 14.65 -12.5 58.4722
      vertex 16.35 -12.5 58.4722
      vertex 25.9 -12.5 62.3
    endloop
  endfacet
  facet normal 0 -1 0
    outer loop
      vertex -10.5058 -12.5 45.8275
      vertex -14.65 -12.5 55.5278
      vertex -11.2487 -12.5 43.541
    endloop
  endfacet
  facet normal 0 -1 0
    outer loop
      vertex -9.30369 -12.5 47.9095
      vertex -14.65 -12.5 55.5278
      vertex -10.5058 -12.5 45.8275
    endloop
  endfacet
  facet normal 0 -1 0
    outer loop
      vertex 13.8 -12.5 57
      vertex -1.20208 -12.5 52.587
      vertex 1.20208 -12.5 52.587
    endloop
  endfacet
  facet normal 0 -1 0
    outer loop
      vertex -7.695 -12.5 49.6962
      vertex -14.65 -12.5 55.5278
      vertex -9.30369 -12.5 47.9095
    endloop
  endfacet
  facet normal 0 -1 0
    outer loop
      vertex -5.75 -12.5 51.1093
      vertex -14.65 -12.5 55.5278
      vertex -7.695 -12.5 49.6962
    endloop
  endfacet
  facet normal 0 -1 0
    outer loop
      vertex -3.55369 -12.5 52.0871
      vertex -14.65 -12.5 55.5278
      vertex -5.75 -12.5 51.1093
    endloop
  endfacet
  facet normal 0 -1 0
    outer loop
      vertex 16.35 -12.5 58.4722
      vertex 17.2 -12.5 57
      vertex 25.9 -12.5 62.3
    endloop
  endfacet
  facet normal 0 -1 0
    outer loop
      vertex 14.65 -12.5 58.4722
      vertex -14.65 -12.5 55.5278
      vertex -3.55369 -12.5 52.0871
    endloop
  endfacet
  facet normal 0 -1 0
    outer loop
      vertex 5.75 -12.5 51.1093
      vertex 7.695 -12.5 49.6962
      vertex 14.65 -12.5 55.5278
    endloop
  endfacet
  facet normal 0 -1 0
    outer loop
      vertex 13.8 -12.5 57
      vertex 14.65 -12.5 58.4722
      vertex -3.55369 -12.5 52.0871
    endloop
  endfacet
  facet normal 0 -1 0
    outer loop
      vertex -1.20208 -12.5 29.713
      vertex -3.55369 -12.5 30.2128
      vertex -14.65 -12.5 27.1222
    endloop
  endfacet
  facet normal 0 -1 0
    outer loop
      vertex 25.9 -12.5 62.3
      vertex 10.5058 -12.5 45.8275
      vertex 25.9 -12.5 25
    endloop
  endfacet
  facet normal 0 -1 0
    outer loop
      vertex 10.5058 -12.5 45.8275
      vertex 11.2487 -12.5 43.541
      vertex 25.9 -12.5 25
    endloop
  endfacet
  facet normal 0 -1 0
    outer loop
      vertex -7.695 -12.5 32.6038
      vertex -16.35 -12.5 27.1222
      vertex -14.65 -12.5 27.1222
    endloop
  endfacet
  facet normal 0 -1 0
    outer loop
      vertex 11.2487 -12.5 43.541
      vertex 11.5 -12.5 41.15
      vertex 25.9 -12.5 25
    endloop
  endfacet
  facet normal 0 -1 0
    outer loop
      vertex -7.695 -12.5 32.6038
      vertex -9.30369 -12.5 34.3905
      vertex -16.35 -12.5 27.1222
    endloop
  endfacet
  facet normal 0 -1 0
    outer loop
      vertex 11.5 -12.5 41.15
      vertex 11.2487 -12.5 38.759
      vertex 25.9 -12.5 25
    endloop
  endfacet
  facet normal 0 -1 0
    outer loop
      vertex 11.2487 -12.5 38.759
      vertex 10.5058 -12.5 36.4725
      vertex 25.9 -12.5 25
    endloop
  endfacet
  facet normal 0 -1 0
    outer loop
      vertex 10.5058 -12.5 36.4725
      vertex 9.30369 -12.5 34.3905
      vertex 25.9 -12.5 25
    endloop
  endfacet
  facet normal 0 -1 0
    outer loop
      vertex 9.30369 -12.5 34.3905
      vertex 7.695 -12.5 32.6038
      vertex 25.9 -12.5 25
    endloop
  endfacet
  facet normal 0 -1 0
    outer loop
      vertex 7.695 -12.5 32.6038
      vertex 5.75 -12.5 31.1907
      vertex 25.9 -12.5 25
    endloop
  endfacet
  facet normal 0 -1 0
    outer loop
      vertex 5.75 -12.5 31.1907
      vertex 3.55369 -12.5 30.2128
      vertex 25.9 -12.5 25
    endloop
  endfacet
  facet normal 0 -1 0
    outer loop
      vertex -5.75 -12.5 31.1907
      vertex -7.695 -12.5 32.6038
      vertex -14.65 -12.5 27.1222
    endloop
  endfacet
  facet normal 0 -1 0
    outer loop
      vertex 14.65 -12.5 24.1778
      vertex 13.8 -12.5 25.65
      vertex -14.65 -12.5 27.1222
    endloop
  endfacet
  facet normal 0 -1 0
    outer loop
      vertex 1.20208 -12.5 29.713
      vertex -1.20208 -12.5 29.713
      vertex -14.65 -12.5 27.1222
    endloop
  endfacet
  facet normal 0 -1 0
    outer loop
      vertex 9.30369 -12.5 47.9095
      vertex 10.5058 -12.5 45.8275
      vertex 25.9 -12.5 62.3
    endloop
  endfacet
  facet normal 0 -1 0
    outer loop
      vertex 0.460168 -12.5 12.6097
      vertex 2.03002 -12.5 11.7034
      vertex 44.15 -12.5 0
    endloop
  endfacet
  facet normal 0 -1 0
    outer loop
      vertex 14.65 -12.5 24.1778
      vertex -13.8 -12.5 25.65
      vertex -14.65 -12.5 24.1778
    endloop
  endfacet
  facet normal 0 -1 0
    outer loop
      vertex -44.15 -12.5 25
      vertex -33.7398 -12.5 12.6097
      vertex -2.49018 -12.5 9.09365
    endloop
  endfacet
  facet normal 0 -1 0
    outer loop
      vertex 2.03002 -12.5 8.29661
      vertex 0.460168 -12.5 7.39026
      vertex 44.15 -12.5 0
    endloop
  endfacet
  facet normal 0 -1 0
    outer loop
      vertex -44.15 -12.5 25
      vertex -2.49018 -12.5 9.09365
      vertex -2.49018 -12.5 10.9064
    endloop
  endfacet
  facet normal 0 -1 0
    outer loop
      vertex 2.65 -12.5 10
      vertex 2.03002 -12.5 8.29661
      vertex 44.15 -12.5 0
    endloop
  endfacet
  facet normal 0 -1 0
    outer loop
      vertex -44.15 -12.5 25
      vertex -2.49018 -12.5 10.9064
      vertex -1.325 -12.5 12.295
    endloop
  endfacet
  facet normal 0 -1 0
    outer loop
      vertex -25.9 -12.5 25
      vertex 0.460168 -12.5 12.6097
      vertex 44.15 -12.5 0
    endloop
  endfacet
  facet normal 0 -1 0
    outer loop
      vertex -25.9 -12.5 25
      vertex -44.15 -12.5 25
      vertex 0.460168 -12.5 12.6097
    endloop
  endfacet
  facet normal 0 -1 0
    outer loop
      vertex 2.03002 -12.5 11.7034
      vertex 2.65 -12.5 10
      vertex 44.15 -12.5 0
    endloop
  endfacet
  facet normal 0 -1 0
    outer loop
      vertex 14.65 -12.5 24.1778
      vertex -14.65 -12.5 27.1222
      vertex -13.8 -12.5 25.65
    endloop
  endfacet
  facet normal 0 -1 0
    outer loop
      vertex -1.325 -12.5 7.70503
      vertex -33.7398 -12.5 12.6097
      vertex 0.460168 -12.5 7.39026
    endloop
  endfacet
  facet normal 0 -1 0
    outer loop
      vertex -2.49018 -12.5 9.09365
      vertex -33.7398 -12.5 12.6097
      vertex -1.325 -12.5 7.70503
    endloop
  endfacet
  facet normal 0 -1 0
    outer loop
      vertex 13.8 -12.5 57
      vertex -3.55369 -12.5 52.0871
      vertex -1.20208 -12.5 52.587
    endloop
  endfacet
  facet normal 0 -1 0
    outer loop
      vertex 16.35 -12.5 55.5278
      vertex 14.65 -12.5 55.5278
      vertex 7.695 -12.5 49.6962
    endloop
  endfacet
  facet normal 0 -1 0
    outer loop
      vertex 1.20208 -12.5 29.713
      vertex -14.65 -12.5 27.1222
      vertex 13.8 -12.5 25.65
    endloop
  endfacet
  facet normal 0 -1 0
    outer loop
      vertex 16.35 -12.5 27.1222
      vertex 17.2 -12.5 25.65
      vertex 25.9 -12.5 25
    endloop
  endfacet
  facet normal 0 -1 0
    outer loop
      vertex 1.20208 -12.5 29.713
      vertex 13.8 -12.5 25.65
      vertex 14.65 -12.5 27.1222
    endloop
  endfacet
  facet normal 0 -1 0
    outer loop
      vertex 3.55369 -12.5 30.2128
      vertex 16.35 -12.5 27.1222
      vertex 25.9 -12.5 25
    endloop
  endfacet
  facet normal 0 -1 0
    outer loop
      vertex 3.55369 -12.5 30.2128
      vertex 1.20208 -12.5 29.713
      vertex 16.35 -12.5 27.1222
    endloop
  endfacet
  facet normal 0 -1 0
    outer loop
      vertex 17.2 -12.5 57
      vertex 16.35 -12.5 55.5278
      vertex 25.9 -12.5 62.3
    endloop
  endfacet
  facet normal 0 -1 0
    outer loop
      vertex 7.695 -12.5 49.6962
      vertex 9.30369 -12.5 47.9095
      vertex 16.35 -12.5 55.5278
    endloop
  endfacet
  facet normal 0 -1 0
    outer loop
      vertex 14.65 -12.5 55.5278
      vertex 3.55369 -12.5 52.0871
      vertex 5.75 -12.5 51.1093
    endloop
  endfacet
  facet normal 0 -1 0
    outer loop
      vertex 25.9 -12.5 62.3
      vertex -14.65 -12.5 55.5278
      vertex 14.65 -12.5 58.4722
    endloop
  endfacet
  facet normal 0 -1 0
    outer loop
      vertex 31.7098 -12.5 9.09365
      vertex 31.7098 -12.5 10.9064
      vertex 16.35 -12.5 24.1778
    endloop
  endfacet
  facet normal 0 -1 0
    outer loop
      vertex -1.325 -12.5 12.295
      vertex 0.460168 -12.5 12.6097
      vertex -44.15 -12.5 25
    endloop
  endfacet
  facet normal 0 -1 0
    outer loop
      vertex -3.55369 -12.5 30.2128
      vertex -5.75 -12.5 31.1907
      vertex -14.65 -12.5 27.1222
    endloop
  endfacet
  facet normal 0 -1 0
    outer loop
      vertex 14.65 -12.5 55.5278
      vertex 13.8 -12.5 57
      vertex 3.55369 -12.5 52.0871
    endloop
  endfacet
  facet normal 0 -1 0
    outer loop
      vertex 14.65 -12.5 24.1778
      vertex -14.65 -12.5 24.1778
      vertex 31.7098 -12.5 9.09365
    endloop
  endfacet
  facet normal 0 -1 0
    outer loop
      vertex 34.6602 -12.5 7.39026
      vertex 32.875 -12.5 7.70503
      vertex 44.15 -12.5 0
    endloop
  endfacet
  facet normal 0 -1 0
    outer loop
      vertex 25.9 -12.5 25
      vertex 16.35 -12.5 24.1778
      vertex 31.7098 -12.5 10.9064
    endloop
  endfacet
  facet normal 0 -1 0
    outer loop
      vertex 36.23 -12.5 8.29661
      vertex 34.6602 -12.5 7.39026
      vertex 44.15 -12.5 0
    endloop
  endfacet
  facet normal 0 -1 0
    outer loop
      vertex 25.9 -12.5 25
      vertex 31.7098 -12.5 10.9064
      vertex 32.875 -12.5 12.295
    endloop
  endfacet
  facet normal 0 -1 0
    outer loop
      vertex 36.85 -12.5 10
      vertex 36.23 -12.5 8.29661
      vertex 44.15 -12.5 0
    endloop
  endfacet
  facet normal 0 -1 0
    outer loop
      vertex 25.9 -12.5 25
      vertex 32.875 -12.5 12.295
      vertex 34.6602 -12.5 12.6097
    endloop
  endfacet
  facet normal 0 -1 0
    outer loop
      vertex 44.15 -12.5 25
      vertex 36.23 -12.5 11.7034
      vertex 44.15 -12.5 0
    endloop
  endfacet
  facet normal 0 -1 0
    outer loop
      vertex 44.15 -12.5 25
      vertex 25.9 -12.5 25
      vertex 36.23 -12.5 11.7034
    endloop
  endfacet
  facet normal 0 -1 0
    outer loop
      vertex 36.23 -12.5 11.7034
      vertex 36.85 -12.5 10
      vertex 44.15 -12.5 0
    endloop
  endfacet
  facet normal 0 -1 0
    outer loop
      vertex 34.6602 -12.5 12.6097
      vertex 36.23 -12.5 11.7034
      vertex 25.9 -12.5 25
    endloop
  endfacet
  facet normal 0 -1 0
    outer loop
      vertex 31.7098 -12.5 9.09365
      vertex -14.65 -12.5 24.1778
      vertex 32.875 -12.5 7.70503
    endloop
  endfacet
  facet normal 0 -1 0
    outer loop
      vertex -16.35 -12.5 55.5278
      vertex -11.2487 -12.5 43.541
      vertex -14.65 -12.5 55.5278
    endloop
  endfacet
  facet normal 0 -1 0
    outer loop
      vertex -25.9 -12.5 62.3
      vertex -11.2487 -12.5 43.541
      vertex -16.35 -12.5 55.5278
    endloop
  endfacet
  facet normal 0 -1 0
    outer loop
      vertex -25.9 -12.5 62.3
      vertex -11.5 -12.5 41.15
      vertex -11.2487 -12.5 43.541
    endloop
  endfacet
  facet normal 0 -1 0
    outer loop
      vertex -25.9 -12.5 62.3
      vertex -11.2487 -12.5 38.759
      vertex -11.5 -12.5 41.15
    endloop
  endfacet
  facet normal 0 -1 0
    outer loop
      vertex -25.9 -12.5 62.3
      vertex -25.9 -12.5 25
      vertex -11.2487 -12.5 38.759
    endloop
  endfacet
  facet normal 0 0 -1
    outer loop
      vertex -44.15 -12.5 0
      vertex -44.15 -7.5 0
      vertex 44.15 -12.5 0
    endloop
  endfacet
  facet normal 0 0 -1
    outer loop
      vertex 44.15 -12.5 0
      vertex -44.15 -7.5 0
      vertex 44.15 -7.5 0
    endloop
  endfacet
  facet normal 0 1 0
    outer loop
      vertex -14.65 -7.5 58.4722
      vertex -21.15 -7.5 62.3
      vertex 21.15 -7.5 62.3
    endloop
  endfacet
  facet normal 0 1 0
    outer loop
      vertex 10.5058 -7.5 36.4725
      vertex 21.15 -7.5 62.3
      vertex 21.15 -7.5 20.5
    endloop
  endfacet
  facet normal 0 1 0
    outer loop
      vertex 36.23 -7.5 8.29661
      vertex 44.15 -7.5 20.5
      vertex 44.15 -7.5 0
    endloop
  endfacet
  facet normal 0 1 0
    outer loop
      vertex 32.875 -7.5 7.70503
      vertex 44.15 -7.5 0
      vertex -21.15 -7.5 20.5
    endloop
  endfacet
  facet normal 0 1 0
    outer loop
      vertex -36.6902 -7.5 9.09365
      vertex -44.15 -7.5 0
      vertex -44.15 -7.5 20.5
    endloop
  endfacet
  facet normal 0 1 0
    outer loop
      vertex -35.525 -7.5 7.70503
      vertex -44.15 -7.5 0
      vertex -36.6902 -7.5 9.09365
    endloop
  endfacet
  facet normal 0 1 0
    outer loop
      vertex -36.6902 -7.5 10.9064
      vertex -36.6902 -7.5 9.09365
      vertex -44.15 -7.5 20.5
    endloop
  endfacet
  facet normal 0 1 0
    outer loop
      vertex -33.7398 -7.5 7.39026
      vertex -44.15 -7.5 0
      vertex -35.525 -7.5 7.70503
    endloop
  endfacet
  facet normal 0 1 0
    outer loop
      vertex 44.15 -7.5 0
      vertex -44.15 -7.5 0
      vertex -33.7398 -7.5 7.39026
    endloop
  endfacet
  facet normal 0 1 0
    outer loop
      vertex -31.55 -7.5 10
      vertex 44.15 -7.5 0
      vertex -32.17 -7.5 8.29661
    endloop
  endfacet
  facet normal 0 1 0
    outer loop
      vertex -35.525 -7.5 12.295
      vertex -44.15 -7.5 20.5
      vertex -33.7398 -7.5 12.6097
    endloop
  endfacet
  facet normal 0 1 0
    outer loop
      vertex -13.8 -7.5 57
      vertex 21.15 -7.5 62.3
      vertex -14.65 -7.5 55.5278
    endloop
  endfacet
  facet normal 0 1 0
    outer loop
      vertex 44.15 -7.5 0
      vertex -31.55 -7.5 10
      vertex -32.17 -7.5 11.7034
    endloop
  endfacet
  facet normal 0 1 0
    outer loop
      vertex -2.49018 -7.5 9.09365
      vertex -32.17 -7.5 11.7034
      vertex -44.15 -7.5 20.5
    endloop
  endfacet
  facet normal 0 1 0
    outer loop
      vertex -32.17 -7.5 11.7034
      vertex -33.7398 -7.5 12.6097
      vertex -44.15 -7.5 20.5
    endloop
  endfacet
  facet normal 0 1 0
    outer loop
      vertex -16.35 -7.5 24.1778
      vertex -21.15 -7.5 20.5
      vertex -17.2 -7.5 25.65
    endloop
  endfacet
  facet normal 0 1 0
    outer loop
      vertex -35.525 -7.5 12.295
      vertex -36.6902 -7.5 10.9064
      vertex -44.15 -7.5 20.5
    endloop
  endfacet
  facet normal 0 1 0
    outer loop
      vertex -5.75 -7.5 31.1907
      vertex -14.65 -7.5 24.1778
      vertex -13.8 -7.5 25.65
    endloop
  endfacet
  facet normal 0 1 0
    outer loop
      vertex -21.15 -7.5 20.5
      vertex -16.35 -7.5 24.1778
      vertex 21.15 -7.5 20.5
    endloop
  endfacet
  facet normal 0 1 0
    outer loop
      vertex -16.35 -7.5 24.1778
      vertex -14.65 -7.5 24.1778
      vertex 21.15 -7.5 20.5
    endloop
  endfacet
  facet normal 0 1 0
    outer loop
      vertex -16.35 -7.5 27.1222
      vertex -21.15 -7.5 62.3
      vertex -14.65 -7.5 27.1222
    endloop
  endfacet
  facet normal 0 1 0
    outer loop
      vertex -14.65 -7.5 27.1222
      vertex -7.695 -7.5 32.6038
      vertex -13.8 -7.5 25.65
    endloop
  endfacet
  facet normal 0 1 0
    outer loop
      vertex -21.15 -7.5 20.5
      vertex -21.15 -7.5 62.3
      vertex -16.35 -7.5 27.1222
    endloop
  endfacet
  facet normal 0 1 0
    outer loop
      vertex -21.15 -7.5 20.5
      vertex -16.35 -7.5 27.1222
      vertex -17.2 -7.5 25.65
    endloop
  endfacet
  facet normal 0 1 0
    outer loop
      vertex -14.65 -7.5 27.1222
      vertex -21.15 -7.5 62.3
      vertex -16.35 -7.5 55.5278
    endloop
  endfacet
  facet normal 0 1 0
    outer loop
      vertex -14.65 -7.5 27.1222
      vertex -16.35 -7.5 55.5278
      vertex -14.65 -7.5 55.5278
    endloop
  endfacet
  facet normal 0 1 0
    outer loop
      vertex 1.20208 -7.5 52.587
      vertex -14.65 -7.5 55.5278
      vertex 21.15 -7.5 62.3
    endloop
  endfacet
  facet normal 0 1 0
    outer loop
      vertex -7.695 -7.5 32.6038
      vertex -14.65 -7.5 27.1222
      vertex -9.30369 -7.5 34.3905
    endloop
  endfacet
  facet normal 0 1 0
    outer loop
      vertex -16.35 -7.5 58.4722
      vertex -21.15 -7.5 62.3
      vertex -14.65 -7.5 58.4722
    endloop
  endfacet
  facet normal 0 1 0
    outer loop
      vertex -13.8 -7.5 57
      vertex -14.65 -7.5 58.4722
      vertex 21.15 -7.5 62.3
    endloop
  endfacet
  facet normal 0 1 0
    outer loop
      vertex -17.2 -7.5 57
      vertex -21.15 -7.5 62.3
      vertex -16.35 -7.5 58.4722
    endloop
  endfacet
  facet normal 0 1 0
    outer loop
      vertex -16.35 -7.5 55.5278
      vertex -21.15 -7.5 62.3
      vertex -17.2 -7.5 57
    endloop
  endfacet
  facet normal 0 1 0
    outer loop
      vertex -14.65 -7.5 27.1222
      vertex -14.65 -7.5 55.5278
      vertex -11.2487 -7.5 38.759
    endloop
  endfacet
  facet normal 0 1 0
    outer loop
      vertex -14.65 -7.5 27.1222
      vertex -11.2487 -7.5 38.759
      vertex -10.5058 -7.5 36.4725
    endloop
  endfacet
  facet normal 0 1 0
    outer loop
      vertex 3.55369 -7.5 52.0871
      vertex 13.8 -7.5 57
      vertex 5.75 -7.5 51.1093
    endloop
  endfacet
  facet normal 0 1 0
    outer loop
      vertex -14.65 -7.5 27.1222
      vertex -10.5058 -7.5 36.4725
      vertex -9.30369 -7.5 34.3905
    endloop
  endfacet
  facet normal 0 1 0
    outer loop
      vertex -1.20208 -7.5 29.713
      vertex 21.15 -7.5 20.5
      vertex -3.55369 -7.5 30.2128
    endloop
  endfacet
  facet normal 0 1 0
    outer loop
      vertex -14.65 -7.5 24.1778
      vertex -5.75 -7.5 31.1907
      vertex -3.55369 -7.5 30.2128
    endloop
  endfacet
  facet normal 0 1 0
    outer loop
      vertex -14.65 -7.5 24.1778
      vertex -3.55369 -7.5 30.2128
      vertex 21.15 -7.5 20.5
    endloop
  endfacet
  facet normal 0 1 0
    outer loop
      vertex 11.5 -7.5 41.15
      vertex 21.15 -7.5 62.3
      vertex 11.2487 -7.5 38.759
    endloop
  endfacet
  facet normal 0 1 0
    outer loop
      vertex 16.35 -7.5 55.5278
      vertex 21.15 -7.5 62.3
      vertex 10.5058 -7.5 45.8275
    endloop
  endfacet
  facet normal 0 1 0
    outer loop
      vertex -1.20208 -7.5 29.713
      vertex 1.20208 -7.5 29.713
      vertex 21.15 -7.5 20.5
    endloop
  endfacet
  facet normal 0 1 0
    outer loop
      vertex 9.30369 -7.5 47.9095
      vertex 16.35 -7.5 55.5278
      vertex 10.5058 -7.5 45.8275
    endloop
  endfacet
  facet normal 0 1 0
    outer loop
      vertex 1.20208 -7.5 29.713
      vertex 3.55369 -7.5 30.2128
      vertex 21.15 -7.5 20.5
    endloop
  endfacet
  facet normal 0 1 0
    outer loop
      vertex 10.5058 -7.5 45.8275
      vertex 21.15 -7.5 62.3
      vertex 11.2487 -7.5 43.541
    endloop
  endfacet
  facet normal 0 1 0
    outer loop
      vertex 16.35 -7.5 24.1778
      vertex 21.15 -7.5 20.5
      vertex 14.65 -7.5 24.1778
    endloop
  endfacet
  facet normal 0 1 0
    outer loop
      vertex 11.2487 -7.5 43.541
      vertex 21.15 -7.5 62.3
      vertex 11.5 -7.5 41.15
    endloop
  endfacet
  facet normal 0 1 0
    outer loop
      vertex 14.65 -7.5 58.4722
      vertex 21.15 -7.5 62.3
      vertex 16.35 -7.5 58.4722
    endloop
  endfacet
  facet normal 0 1 0
    outer loop
      vertex 14.65 -7.5 27.1222
      vertex 10.5058 -7.5 36.4725
      vertex 16.35 -7.5 27.1222
    endloop
  endfacet
  facet normal 0 1 0
    outer loop
      vertex 11.2487 -7.5 38.759
      vertex 21.15 -7.5 62.3
      vertex 10.5058 -7.5 36.4725
    endloop
  endfacet
  facet normal 0 1 0
    outer loop
      vertex 16.35 -7.5 27.1222
      vertex 10.5058 -7.5 36.4725
      vertex 21.15 -7.5 20.5
    endloop
  endfacet
  facet normal 0 1 0
    outer loop
      vertex 7.695 -7.5 49.6962
      vertex 14.65 -7.5 55.5278
      vertex 9.30369 -7.5 47.9095
    endloop
  endfacet
  facet normal 0 1 0
    outer loop
      vertex -5.75 -7.5 31.1907
      vertex -13.8 -7.5 25.65
      vertex -7.695 -7.5 32.6038
    endloop
  endfacet
  facet normal 0 1 0
    outer loop
      vertex -2.49018 -7.5 9.09365
      vertex -44.15 -7.5 20.5
      vertex -2.49018 -7.5 10.9064
    endloop
  endfacet
  facet normal 0 1 0
    outer loop
      vertex 14.65 -7.5 58.4722
      vertex 3.55369 -7.5 52.0871
      vertex 21.15 -7.5 62.3
    endloop
  endfacet
  facet normal 0 1 0
    outer loop
      vertex 3.55369 -7.5 52.0871
      vertex 1.20208 -7.5 52.587
      vertex 21.15 -7.5 62.3
    endloop
  endfacet
  facet normal 0 1 0
    outer loop
      vertex -3.55369 -7.5 52.0871
      vertex -14.65 -7.5 55.5278
      vertex -1.20208 -7.5 52.587
    endloop
  endfacet
  facet normal 0 1 0
    outer loop
      vertex -5.75 -7.5 51.1093
      vertex -14.65 -7.5 55.5278
      vertex -3.55369 -7.5 52.0871
    endloop
  endfacet
  facet normal 0 1 0
    outer loop
      vertex -7.695 -7.5 49.6962
      vertex -14.65 -7.5 55.5278
      vertex -5.75 -7.5 51.1093
    endloop
  endfacet
  facet normal 0 1 0
    outer loop
      vertex -9.30369 -7.5 47.9095
      vertex -14.65 -7.5 55.5278
      vertex -7.695 -7.5 49.6962
    endloop
  endfacet
  facet normal 0 1 0
    outer loop
      vertex -10.5058 -7.5 45.8275
      vertex -14.65 -7.5 55.5278
      vertex -9.30369 -7.5 47.9095
    endloop
  endfacet
  facet normal 0 1 0
    outer loop
      vertex -11.2487 -7.5 43.541
      vertex -14.65 -7.5 55.5278
      vertex -10.5058 -7.5 45.8275
    endloop
  endfacet
  facet normal 0 1 0
    outer loop
      vertex -11.5 -7.5 41.15
      vertex -14.65 -7.5 55.5278
      vertex -11.2487 -7.5 43.541
    endloop
  endfacet
  facet normal 0 1 0
    outer loop
      vertex -11.2487 -7.5 38.759
      vertex -14.65 -7.5 55.5278
      vertex -11.5 -7.5 41.15
    endloop
  endfacet
  facet normal 0 1 0
    outer loop
      vertex -1.325 -7.5 7.70503
      vertex -32.17 -7.5 11.7034
      vertex -2.49018 -7.5 9.09365
    endloop
  endfacet
  facet normal 0 1 0
    outer loop
      vertex 2.03002 -7.5 8.29661
      vertex 44.15 -7.5 0
      vertex 0.460168 -7.5 7.39026
    endloop
  endfacet
  facet normal 0 1 0
    outer loop
      vertex 0.460168 -7.5 7.39026
      vertex -32.17 -7.5 11.7034
      vertex -1.325 -7.5 7.70503
    endloop
  endfacet
  facet normal 0 1 0
    outer loop
      vertex 44.15 -7.5 0
      vertex -32.17 -7.5 11.7034
      vertex 0.460168 -7.5 7.39026
    endloop
  endfacet
  facet normal 0 1 0
    outer loop
      vertex 2.65 -7.5 10
      vertex 44.15 -7.5 0
      vertex 2.03002 -7.5 8.29661
    endloop
  endfacet
  facet normal 0 1 0
    outer loop
      vertex 2.03002 -7.5 11.7034
      vertex 44.15 -7.5 0
      vertex 2.65 -7.5 10
    endloop
  endfacet
  facet normal 0 1 0
    outer loop
      vertex 0.460168 -7.5 12.6097
      vertex 44.15 -7.5 0
      vertex 2.03002 -7.5 11.7034
    endloop
  endfacet
  facet normal 0 1 0
    outer loop
      vertex -21.15 -7.5 20.5
      vertex 44.15 -7.5 0
      vertex 0.460168 -7.5 12.6097
    endloop
  endfacet
  facet normal 0 1 0
    outer loop
      vertex -2.49018 -7.5 10.9064
      vertex -21.15 -7.5 20.5
      vertex -1.325 -7.5 12.295
    endloop
  endfacet
  facet normal 0 1 0
    outer loop
      vertex -2.49018 -7.5 10.9064
      vertex -44.15 -7.5 20.5
      vertex -21.15 -7.5 20.5
    endloop
  endfacet
  facet normal 0 1 0
    outer loop
      vertex 13.8 -7.5 25.65
      vertex 5.75 -7.5 31.1907
      vertex 7.695 -7.5 32.6038
    endloop
  endfacet
  facet normal 0 1 0
    outer loop
      vertex -1.325 -7.5 12.295
      vertex -21.15 -7.5 20.5
      vertex 0.460168 -7.5 12.6097
    endloop
  endfacet
  facet normal 0 1 0
    outer loop
      vertex 14.65 -7.5 24.1778
      vertex 5.75 -7.5 31.1907
      vertex 13.8 -7.5 25.65
    endloop
  endfacet
  facet normal 0 1 0
    outer loop
      vertex 3.55369 -7.5 30.2128
      vertex 5.75 -7.5 31.1907
      vertex 14.65 -7.5 24.1778
    endloop
  endfacet
  facet normal 0 1 0
    outer loop
      vertex 3.55369 -7.5 30.2128
      vertex 14.65 -7.5 24.1778
      vertex 21.15 -7.5 20.5
    endloop
  endfacet
  facet normal 0 1 0
    outer loop
      vertex 14.65 -7.5 55.5278
      vertex 5.75 -7.5 51.1093
      vertex 13.8 -7.5 57
    endloop
  endfacet
  facet normal 0 1 0
    outer loop
      vertex 17.2 -7.5 25.65
      vertex 21.15 -7.5 20.5
      vertex 16.35 -7.5 24.1778
    endloop
  endfacet
  facet normal 0 1 0
    outer loop
      vertex 13.8 -7.5 25.65
      vertex 7.695 -7.5 32.6038
      vertex 14.65 -7.5 27.1222
    endloop
  endfacet
  facet normal 0 1 0
    outer loop
      vertex 14.65 -7.5 27.1222
      vertex 9.30369 -7.5 34.3905
      vertex 10.5058 -7.5 36.4725
    endloop
  endfacet
  facet normal 0 1 0
    outer loop
      vertex 17.2 -7.5 25.65
      vertex 16.35 -7.5 27.1222
      vertex 21.15 -7.5 20.5
    endloop
  endfacet
  facet normal 0 1 0
    outer loop
      vertex 7.695 -7.5 32.6038
      vertex 9.30369 -7.5 34.3905
      vertex 14.65 -7.5 27.1222
    endloop
  endfacet
  facet normal 0 1 0
    outer loop
      vertex 14.65 -7.5 55.5278
      vertex 7.695 -7.5 49.6962
      vertex 5.75 -7.5 51.1093
    endloop
  endfacet
  facet normal 0 1 0
    outer loop
      vertex 17.2 -7.5 57
      vertex 21.15 -7.5 62.3
      vertex 16.35 -7.5 55.5278
    endloop
  endfacet
  facet normal 0 1 0
    outer loop
      vertex 16.35 -7.5 55.5278
      vertex 9.30369 -7.5 47.9095
      vertex 14.65 -7.5 55.5278
    endloop
  endfacet
  facet normal 0 1 0
    outer loop
      vertex 16.35 -7.5 58.4722
      vertex 21.15 -7.5 62.3
      vertex 17.2 -7.5 57
    endloop
  endfacet
  facet normal 0 1 0
    outer loop
      vertex 3.55369 -7.5 52.0871
      vertex 14.65 -7.5 58.4722
      vertex 13.8 -7.5 57
    endloop
  endfacet
  facet normal 0 1 0
    outer loop
      vertex -1.20208 -7.5 52.587
      vertex -14.65 -7.5 55.5278
      vertex 1.20208 -7.5 52.587
    endloop
  endfacet
  facet normal 0 1 0
    outer loop
      vertex 31.7098 -7.5 9.09365
      vertex 21.15 -7.5 20.5
      vertex 31.7098 -7.5 10.9064
    endloop
  endfacet
  facet normal 0 1 0
    outer loop
      vertex 36.23 -7.5 8.29661
      vertex 44.15 -7.5 0
      vertex 34.6602 -7.5 7.39026
    endloop
  endfacet
  facet normal 0 1 0
    outer loop
      vertex 21.15 -7.5 20.5
      vertex 31.7098 -7.5 9.09365
      vertex -21.15 -7.5 20.5
    endloop
  endfacet
  facet normal 0 1 0
    outer loop
      vertex 31.7098 -7.5 9.09365
      vertex 32.875 -7.5 7.70503
      vertex -21.15 -7.5 20.5
    endloop
  endfacet
  facet normal 0 1 0
    outer loop
      vertex 34.6602 -7.5 7.39026
      vertex 44.15 -7.5 0
      vertex 32.875 -7.5 7.70503
    endloop
  endfacet
  facet normal 0 1 0
    outer loop
      vertex 36.85 -7.5 10
      vertex 44.15 -7.5 20.5
      vertex 36.23 -7.5 8.29661
    endloop
  endfacet
  facet normal 0 1 0
    outer loop
      vertex 32.875 -7.5 12.295
      vertex 21.15 -7.5 20.5
      vertex 34.6602 -7.5 12.6097
    endloop
  endfacet
  facet normal 0 1 0
    outer loop
      vertex 36.23 -7.5 11.7034
      vertex 44.15 -7.5 20.5
      vertex 36.85 -7.5 10
    endloop
  endfacet
  facet normal 0 1 0
    outer loop
      vertex 21.15 -7.5 20.5
      vertex 44.15 -7.5 20.5
      vertex 36.23 -7.5 11.7034
    endloop
  endfacet
  facet normal 0 1 0
    outer loop
      vertex 21.15 -7.5 20.5
      vertex 36.23 -7.5 11.7034
      vertex 34.6602 -7.5 12.6097
    endloop
  endfacet
  facet normal 0 1 0
    outer loop
      vertex 31.7098 -7.5 10.9064
      vertex 21.15 -7.5 20.5
      vertex 32.875 -7.5 12.295
    endloop
  endfacet
  facet normal 0 1 0
    outer loop
      vertex -32.17 -7.5 8.29661
      vertex 44.15 -7.5 0
      vertex -33.7398 -7.5 7.39026
    endloop
  endfacet
  facet normal 0 0 -1
    outer loop
      vertex -35.525 4.79497 20.5
      vertex -44.15 12.5 20.5
      vertex -33.7398 5.10974 20.5
    endloop
  endfacet
  facet normal 0 0 -1
    outer loop
      vertex -35.525 0.205033 20.5
      vertex -21.15 -7.5 20.5
      vertex -44.15 -7.5 20.5
    endloop
  endfacet
  facet normal 0 0 -1
    outer loop
      vertex -31.55 2.5 20.5
      vertex -21.15 -7.5 20.5
      vertex -32.17 0.796613 20.5
    endloop
  endfacet
  facet normal 0 0 -1
    outer loop
      vertex -44.15 12.5 20.5
      vertex -36.6902 1.59365 20.5
      vertex -44.15 -7.5 20.5
    endloop
  endfacet
  facet normal 0 0 -1
    outer loop
      vertex -36.6902 3.40635 20.5
      vertex -44.15 12.5 20.5
      vertex -35.525 4.79497 20.5
    endloop
  endfacet
  facet normal 0 0 -1
    outer loop
      vertex -36.6902 1.59365 20.5
      vertex -35.525 0.205033 20.5
      vertex -44.15 -7.5 20.5
    endloop
  endfacet
  facet normal 0 0 -1
    outer loop
      vertex -32.17 0.796613 20.5
      vertex -21.15 -7.5 20.5
      vertex -33.7398 -0.109741 20.5
    endloop
  endfacet
  facet normal 0 0 -1
    outer loop
      vertex -21.15 12.5 20.5
      vertex -21.15 -7.5 20.5
      vertex -31.55 2.5 20.5
    endloop
  endfacet
  facet normal 0 0 -1
    outer loop
      vertex -21.15 12.5 20.5
      vertex -31.55 2.5 20.5
      vertex -32.17 4.20339 20.5
    endloop
  endfacet
  facet normal 0 0 -1
    outer loop
      vertex -21.15 12.5 20.5
      vertex -32.17 4.20339 20.5
      vertex -44.15 12.5 20.5
    endloop
  endfacet
  facet normal 0 0 -1
    outer loop
      vertex -32.17 4.20339 20.5
      vertex -33.7398 5.10974 20.5
      vertex -44.15 12.5 20.5
    endloop
  endfacet
  facet normal 0 0 -1
    outer loop
      vertex -44.15 12.5 20.5
      vertex -36.6902 3.40635 20.5
      vertex -36.6902 1.59365 20.5
    endloop
  endfacet
  facet normal 0 0 -1
    outer loop
      vertex -33.7398 -0.109741 20.5
      vertex -21.15 -7.5 20.5
      vertex -35.525 0.205033 20.5
    endloop
  endfacet
  facet normal 0 1 0
    outer loop
      vertex -44.15 12.5 20.5
      vertex -44.15 12.5 25
      vertex -21.15 12.5 20.5
    endloop
  endfacet
  facet normal 0 1 0
    outer loop
      vertex -21.15 12.5 20.5
      vertex -44.15 12.5 25
      vertex -25.9 12.5 25
    endloop
  endfacet
  facet normal 0 1 0
    outer loop
      vertex -21.15 12.5 20.5
      vertex -25.9 12.5 25
      vertex -25.9 12.5 62.3
    endloop
  endfacet
  facet normal 0 1 0
    outer loop
      vertex -21.15 12.5 20.5
      vertex -25.9 12.5 62.3
      vertex -21.15 12.5 62.3
    endloop
  endfacet
  facet normal 0 0 1
    outer loop
      vertex -35.525 4.79497 25
      vertex -25.9 12.5 25
      vertex -44.15 12.5 25
    endloop
  endfacet
  facet normal 0 0 1
    outer loop
      vertex -35.525 4.79497 25
      vertex -33.7398 5.10974 25
      vertex -25.9 12.5 25
    endloop
  endfacet
  facet normal 0 0 1
    outer loop
      vertex -36.6902 3.40635 25
      vertex -35.525 4.79497 25
      vertex -44.15 12.5 25
    endloop
  endfacet
  facet normal 0 0 1
    outer loop
      vertex -31.55 2.5 25
      vertex -32.17 0.796613 25
      vertex -25.9 -12.5 25
    endloop
  endfacet
  facet normal 0 0 1
    outer loop
      vertex -32.17 4.20339 25
      vertex -25.9 12.5 25
      vertex -33.7398 5.10974 25
    endloop
  endfacet
  facet normal 0 0 1
    outer loop
      vertex -25.9 -12.5 25
      vertex -25.9 12.5 25
      vertex -32.17 4.20339 25
    endloop
  endfacet
  facet normal 0 0 1
    outer loop
      vertex -33.7398 -0.109741 25
      vertex -35.525 0.205033 25
      vertex -25.9 -12.5 25
    endloop
  endfacet
  facet normal 0 0 1
    outer loop
      vertex -25.9 -12.5 25
      vertex -32.17 4.20339 25
      vertex -31.55 2.5 25
    endloop
  endfacet
  facet normal 0 0 1
    outer loop
      vertex -25.9 -12.5 25
      vertex -32.17 0.796613 25
      vertex -33.7398 -0.109741 25
    endloop
  endfacet
  facet normal 0 0 1
    outer loop
      vertex -44.15 -12.5 25
      vertex -25.9 -12.5 25
      vertex -35.525 0.205033 25
    endloop
  endfacet
  facet normal 0 0 1
    outer loop
      vertex -44.15 -12.5 25
      vertex -36.6902 1.59365 25
      vertex -44.15 12.5 25
    endloop
  endfacet
  facet normal 0 0 1
    outer loop
      vertex -44.15 -12.5 25
      vertex -35.525 0.205033 25
      vertex -36.6902 1.59365 25
    endloop
  endfacet
  facet normal 0 0 1
    outer loop
      vertex -36.6902 1.59365 25
      vertex -36.6902 3.40635 25
      vertex -44.15 12.5 25
    endloop
  endfacet
  facet normal -1 0 0
    outer loop
      vertex -25.9 12.5 62.3
      vertex -25.9 12.5 25
      vertex -25.9 -12.5 62.3
    endloop
  endfacet
  facet normal -1 0 0
    outer loop
      vertex -25.9 -12.5 62.3
      vertex -25.9 12.5 25
      vertex -25.9 -12.5 25
    endloop
  endfacet
  facet normal 0 0 1
    outer loop
      vertex -21.15 -7.5 62.3
      vertex -25.9 -12.5 62.3
      vertex 25.9 -12.5 62.3
    endloop
  endfacet
  facet normal 0 0 1
    outer loop
      vertex -21.15 -7.5 62.3
      vertex -21.15 12.5 62.3
      vertex -25.9 12.5 62.3
    endloop
  endfacet
  facet normal 0 0 1
    outer loop
      vertex 25.9 12.5 62.3
      vertex 21.15 12.5 62.3
      vertex 25.9 -12.5 62.3
    endloop
  endfacet
  facet normal 0 0 1
    outer loop
      vertex 21.15 12.5 62.3
      vertex 21.15 -7.5 62.3
      vertex 25.9 -12.5 62.3
    endloop
  endfacet
  facet normal 0 0 1
    outer loop
      vertex -25.9 12.5 62.3
      vertex -25.9 -12.5 62.3
      vertex -21.15 -7.5 62.3
    endloop
  endfacet
  facet normal 0 0 1
    outer loop
      vertex 21.15 -7.5 62.3
      vertex -21.15 -7.5 62.3
      vertex 25.9 -12.5 62.3
    endloop
  endfacet
  facet normal 1 0 0
    outer loop
      vertex 25.9 12.5 25
      vertex 25.9 12.5 62.3
      vertex 25.9 -12.5 62.3
    endloop
  endfacet
  facet normal 1 0 0
    outer loop
      vertex 25.9 -12.5 25
      vertex 25.9 12.5 25
      vertex 25.9 -12.5 62.3
    endloop
  endfacet
  facet normal 0 0 1
    outer loop
      vertex 32.875 4.79497 25
      vertex 44.15 12.5 25
      vertex 25.9 12.5 25
    endloop
  endfacet
  facet normal 0 0 1
    outer loop
      vertex 36.85 2.5 25
      vertex 36.23 0.796613 25
      vertex 44.15 -12.5 25
    endloop
  endfacet
  facet normal 0 0 1
    outer loop
      vertex 25.9 -12.5 25
      vertex 31.7098 3.40635 25
      vertex 25.9 12.5 25
    endloop
  endfacet
  facet normal 0 0 1
    outer loop
      vertex 34.6602 5.10974 25
      vertex 44.15 12.5 25
      vertex 32.875 4.79497 25
    endloop
  endfacet
  facet normal 0 0 1
    outer loop
      vertex 36.23 4.20339 25
      vertex 44.15 12.5 25
      vertex 34.6602 5.10974 25
    endloop
  endfacet
  facet normal 0 0 1
    outer loop
      vertex 44.15 -12.5 25
      vertex 44.15 12.5 25
      vertex 36.23 4.20339 25
    endloop
  endfacet
  facet normal 0 0 1
    outer loop
      vertex 36.23 0.796613 25
      vertex 34.6602 -0.109741 25
      vertex 44.15 -12.5 25
    endloop
  endfacet
  facet normal 0 0 1
    outer loop
      vertex 44.15 -12.5 25
      vertex 36.23 4.20339 25
      vertex 36.85 2.5 25
    endloop
  endfacet
  facet normal 0 0 1
    outer loop
      vertex 34.6602 -0.109741 25
      vertex 32.875 0.205033 25
      vertex 44.15 -12.5 25
    endloop
  endfacet
  facet normal 0 0 1
    outer loop
      vertex 25.9 -12.5 25
      vertex 44.15 -12.5 25
      vertex 32.875 0.205033 25
    endloop
  endfacet
  facet normal 0 0 1
    outer loop
      vertex 25.9 -12.5 25
      vertex 31.7098 1.59365 25
      vertex 31.7098 3.40635 25
    endloop
  endfacet
  facet normal 0 0 1
    outer loop
      vertex 25.9 -12.5 25
      vertex 32.875 0.205033 25
      vertex 31.7098 1.59365 25
    endloop
  endfacet
  facet normal 0 0 1
    outer loop
      vertex 31.7098 3.40635 25
      vertex 32.875 4.79497 25
      vertex 25.9 12.5 25
    endloop
  endfacet
  facet normal 1 0 0
    outer loop
      vertex 44.15 -12.5 25
      vertex 44.15 -12.5 0
      vertex 44.15 -7.5 0
    endloop
  endfacet
  facet normal 1 0 0
    outer loop
      vertex 44.15 12.5 20.5
      vertex 44.15 -12.5 25
      vertex 44.15 -7.5 20.5
    endloop
  endfacet
  facet normal 1 0 0
    outer loop
      vertex 44.15 -7.5 20.5
      vertex 44.15 -12.5 25
      vertex 44.15 -7.5 0
    endloop
  endfacet
  facet normal 1 0 0
    outer loop
      vertex 44.15 12.5 25
      vertex 44.15 -12.5 25
      vertex 44.15 12.5 20.5
    endloop
  endfacet
  facet normal 1 0 0
    outer loop
      vertex -36.6902 -7.5 9.09365
      vertex -36.6902 -7.5 10.9064
      vertex -36.6902 -12.5 10.9064
    endloop
  endfacet
  facet normal 1 0 0
    outer loop
      vertex -36.6902 -12.5 9.09365
      vertex -36.6902 -7.5 9.09365
      vertex -36.6902 -12.5 10.9064
    endloop
  endfacet
  facet normal 0.766045 1.42727e-016 0.642787
    outer loop
      vertex -35.525 -12.5 7.70503
      vertex -35.525 -7.5 7.70503
      vertex -36.6902 -7.5 9.09365
    endloop
  endfacet
  facet normal 0.766045 1.42727e-016 0.642787
    outer loop
      vertex -36.6902 -12.5 9.09365
      vertex -35.525 -12.5 7.70503
      vertex -36.6902 -7.5 9.09365
    endloop
  endfacet
  facet normal 0.173649 2.18671e-016 0.984808
    outer loop
      vertex -33.7398 -12.5 7.39026
      vertex -33.7398 -7.5 7.39026
      vertex -35.525 -7.5 7.70503
    endloop
  endfacet
  facet normal 0.173649 2.18671e-016 0.984808
    outer loop
      vertex -35.525 -12.5 7.70503
      vertex -33.7398 -12.5 7.39026
      vertex -35.525 -7.5 7.70503
    endloop
  endfacet
  facet normal -0.5 1.92296e-016 0.866025
    outer loop
      vertex -32.17 -12.5 8.29661
      vertex -32.17 -7.5 8.29661
      vertex -33.7398 -7.5 7.39026
    endloop
  endfacet
  facet normal -0.5 1.92296e-016 0.866025
    outer loop
      vertex -33.7398 -12.5 7.39026
      vertex -32.17 -12.5 8.29661
      vertex -33.7398 -7.5 7.39026
    endloop
  endfacet
  facet normal -0.939693 7.59437e-017 0.34202
    outer loop
      vertex -31.55 -7.5 10
      vertex -32.17 -7.5 8.29661
      vertex -31.55 -12.5 10
    endloop
  endfacet
  facet normal -0.939693 7.59437e-017 0.34202
    outer loop
      vertex -31.55 -12.5 10
      vertex -32.17 -7.5 8.29661
      vertex -32.17 -12.5 8.29661
    endloop
  endfacet
  facet normal -0.939693 -7.59437e-017 -0.34202
    outer loop
      vertex -31.55 -7.5 10
      vertex -31.55 -12.5 10
      vertex -32.17 -7.5 11.7034
    endloop
  endfacet
  facet normal -0.939693 -7.59437e-017 -0.34202
    outer loop
      vertex -32.17 -7.5 11.7034
      vertex -31.55 -12.5 10
      vertex -32.17 -12.5 11.7034
    endloop
  endfacet
  facet normal -0.5 -1.92296e-016 -0.866025
    outer loop
      vertex -32.17 -7.5 11.7034
      vertex -32.17 -12.5 11.7034
      vertex -33.7398 -7.5 12.6097
    endloop
  endfacet
  facet normal -0.5 -1.92296e-016 -0.866025
    outer loop
      vertex -33.7398 -7.5 12.6097
      vertex -32.17 -12.5 11.7034
      vertex -33.7398 -12.5 12.6097
    endloop
  endfacet
  facet normal 0.173649 -2.18671e-016 -0.984808
    outer loop
      vertex -33.7398 -7.5 12.6097
      vertex -33.7398 -12.5 12.6097
      vertex -35.525 -7.5 12.295
    endloop
  endfacet
  facet normal 0.173649 -2.18671e-016 -0.984808
    outer loop
      vertex -35.525 -7.5 12.295
      vertex -33.7398 -12.5 12.6097
      vertex -35.525 -12.5 12.295
    endloop
  endfacet
  facet normal 0.766045 -1.42727e-016 -0.642787
    outer loop
      vertex -36.6902 -7.5 10.9064
      vertex -35.525 -7.5 12.295
      vertex -35.525 -12.5 12.295
    endloop
  endfacet
  facet normal 0.766045 -1.42727e-016 -0.642787
    outer loop
      vertex -36.6902 -12.5 10.9064
      vertex -36.6902 -7.5 10.9064
      vertex -35.525 -12.5 12.295
    endloop
  endfacet
  facet normal 0 2.22045e-016 1
    outer loop
      vertex -14.65 -12.5 24.1778
      vertex -14.65 -7.5 24.1778
      vertex -16.35 -7.5 24.1778
    endloop
  endfacet
  facet normal 0 2.22045e-016 1
    outer loop
      vertex -16.35 -12.5 24.1778
      vertex -14.65 -12.5 24.1778
      vertex -16.35 -7.5 24.1778
    endloop
  endfacet
  facet normal 0.866025 1.11022e-016 0.5
    outer loop
      vertex -16.35 -12.5 24.1778
      vertex -16.35 -7.5 24.1778
      vertex -17.2 -7.5 25.65
    endloop
  endfacet
  facet normal 0.866025 1.11022e-016 0.5
    outer loop
      vertex -17.2 -12.5 25.65
      vertex -16.35 -12.5 24.1778
      vertex -17.2 -7.5 25.65
    endloop
  endfacet
  facet normal -0.866025 1.11022e-016 0.5
    outer loop
      vertex -13.8 -7.5 25.65
      vertex -14.65 -7.5 24.1778
      vertex -13.8 -12.5 25.65
    endloop
  endfacet
  facet normal -0.866025 1.11022e-016 0.5
    outer loop
      vertex -13.8 -12.5 25.65
      vertex -14.65 -7.5 24.1778
      vertex -14.65 -12.5 24.1778
    endloop
  endfacet
  facet normal -0.866025 -1.11022e-016 -0.5
    outer loop
      vertex -13.8 -7.5 25.65
      vertex -13.8 -12.5 25.65
      vertex -14.65 -7.5 27.1222
    endloop
  endfacet
  facet normal -0.866025 -1.11022e-016 -0.5
    outer loop
      vertex -14.65 -7.5 27.1222
      vertex -13.8 -12.5 25.65
      vertex -14.65 -12.5 27.1222
    endloop
  endfacet
  facet normal 0 -2.22045e-016 -1
    outer loop
      vertex -14.65 -7.5 27.1222
      vertex -14.65 -12.5 27.1222
      vertex -16.35 -7.5 27.1222
    endloop
  endfacet
  facet normal 0 -2.22045e-016 -1
    outer loop
      vertex -16.35 -7.5 27.1222
      vertex -14.65 -12.5 27.1222
      vertex -16.35 -12.5 27.1222
    endloop
  endfacet
  facet normal 0.866025 -1.11022e-016 -0.5
    outer loop
      vertex -17.2 -7.5 25.65
      vertex -16.35 -7.5 27.1222
      vertex -16.35 -12.5 27.1222
    endloop
  endfacet
  facet normal 0.866025 -1.11022e-016 -0.5
    outer loop
      vertex -17.2 -12.5 25.65
      vertex -17.2 -7.5 25.65
      vertex -16.35 -12.5 27.1222
    endloop
  endfacet
  facet normal 0 2.22045e-016 1
    outer loop
      vertex -14.65 -12.5 55.5278
      vertex -14.65 -7.5 55.5278
      vertex -16.35 -7.5 55.5278
    endloop
  endfacet
  facet normal 0 2.22045e-016 1
    outer loop
      vertex -16.35 -12.5 55.5278
      vertex -14.65 -12.5 55.5278
      vertex -16.35 -7.5 55.5278
    endloop
  endfacet
  facet normal 0.866025 1.11022e-016 0.5
    outer loop
      vertex -16.35 -12.5 55.5278
      vertex -16.35 -7.5 55.5278
      vertex -17.2 -7.5 57
    endloop
  endfacet
  facet normal 0.866025 1.11022e-016 0.5
    outer loop
      vertex -17.2 -12.5 57
      vertex -16.35 -12.5 55.5278
      vertex -17.2 -7.5 57
    endloop
  endfacet
  facet normal -0.866025 1.11022e-016 0.5
    outer loop
      vertex -13.8 -7.5 57
      vertex -14.65 -7.5 55.5278
      vertex -13.8 -12.5 57
    endloop
  endfacet
  facet normal -0.866025 1.11022e-016 0.5
    outer loop
      vertex -13.8 -12.5 57
      vertex -14.65 -7.5 55.5278
      vertex -14.65 -12.5 55.5278
    endloop
  endfacet
  facet normal -0.866025 -1.11022e-016 -0.5
    outer loop
      vertex -13.8 -7.5 57
      vertex -13.8 -12.5 57
      vertex -14.65 -7.5 58.4722
    endloop
  endfacet
  facet normal -0.866025 -1.11022e-016 -0.5
    outer loop
      vertex -14.65 -7.5 58.4722
      vertex -13.8 -12.5 57
      vertex -14.65 -12.5 58.4722
    endloop
  endfacet
  facet normal 0 -2.22045e-016 -1
    outer loop
      vertex -14.65 -7.5 58.4722
      vertex -14.65 -12.5 58.4722
      vertex -16.35 -7.5 58.4722
    endloop
  endfacet
  facet normal 0 -2.22045e-016 -1
    outer loop
      vertex -16.35 -7.5 58.4722
      vertex -14.65 -12.5 58.4722
      vertex -16.35 -12.5 58.4722
    endloop
  endfacet
  facet normal 0.866025 -1.11022e-016 -0.5
    outer loop
      vertex -17.2 -7.5 57
      vertex -16.35 -7.5 58.4722
      vertex -16.35 -12.5 58.4722
    endloop
  endfacet
  facet normal 0.866025 -1.11022e-016 -0.5
    outer loop
      vertex -17.2 -12.5 57
      vertex -17.2 -7.5 57
      vertex -16.35 -12.5 58.4722
    endloop
  endfacet
  facet normal 0.994522 2.321e-017 0.104529
    outer loop
      vertex -11.2487 -12.5 38.759
      vertex -11.2487 -7.5 38.759
      vertex -11.5 -7.5 41.15
    endloop
  endfacet
  facet normal 0.994522 2.321e-017 0.104529
    outer loop
      vertex -11.5 -12.5 41.15
      vertex -11.2487 -12.5 38.759
      vertex -11.5 -7.5 41.15
    endloop
  endfacet
  facet normal 0.951057 6.86155e-017 0.309017
    outer loop
      vertex -10.5058 -12.5 36.4725
      vertex -10.5058 -7.5 36.4725
      vertex -11.2487 -7.5 38.759
    endloop
  endfacet
  facet normal 0.951057 6.86155e-017 0.309017
    outer loop
      vertex -11.2487 -12.5 38.759
      vertex -10.5058 -12.5 36.4725
      vertex -11.2487 -7.5 38.759
    endloop
  endfacet
  facet normal 0.866025 1.11022e-016 0.5
    outer loop
      vertex -9.30369 -12.5 34.3905
      vertex -9.30369 -7.5 34.3905
      vertex -10.5058 -7.5 36.4725
    endloop
  endfacet
  facet normal 0.866025 1.11022e-016 0.5
    outer loop
      vertex -10.5058 -12.5 36.4725
      vertex -9.30369 -12.5 34.3905
      vertex -10.5058 -7.5 36.4725
    endloop
  endfacet
  facet normal 0.743145 1.48577e-016 0.669131
    outer loop
      vertex -7.695 -12.5 32.6038
      vertex -7.695 -7.5 32.6038
      vertex -9.30369 -7.5 34.3905
    endloop
  endfacet
  facet normal 0.743145 1.48577e-016 0.669131
    outer loop
      vertex -9.30369 -12.5 34.3905
      vertex -7.695 -12.5 32.6038
      vertex -9.30369 -7.5 34.3905
    endloop
  endfacet
  facet normal 0.587785 1.79638e-016 0.809017
    outer loop
      vertex -5.75 -12.5 31.1907
      vertex -5.75 -7.5 31.1907
      vertex -7.695 -7.5 32.6038
    endloop
  endfacet
  facet normal 0.587785 1.79638e-016 0.809017
    outer loop
      vertex -7.695 -12.5 32.6038
      vertex -5.75 -12.5 31.1907
      vertex -7.695 -7.5 32.6038
    endloop
  endfacet
  facet normal 0.406737 2.02848e-016 0.913545
    outer loop
      vertex -3.55369 -12.5 30.2128
      vertex -3.55369 -7.5 30.2128
      vertex -5.75 -7.5 31.1907
    endloop
  endfacet
  facet normal 0.406737 2.02848e-016 0.913545
    outer loop
      vertex -5.75 -12.5 31.1907
      vertex -3.55369 -12.5 30.2128
      vertex -5.75 -7.5 31.1907
    endloop
  endfacet
  facet normal 0.207912 2.17192e-016 0.978148
    outer loop
      vertex -1.20208 -12.5 29.713
      vertex -1.20208 -7.5 29.713
      vertex -3.55369 -7.5 30.2128
    endloop
  endfacet
  facet normal 0.207912 2.17192e-016 0.978148
    outer loop
      vertex -3.55369 -12.5 30.2128
      vertex -1.20208 -12.5 29.713
      vertex -3.55369 -7.5 30.2128
    endloop
  endfacet
  facet normal 0 2.22045e-016 1
    outer loop
      vertex 1.20208 -12.5 29.713
      vertex 1.20208 -7.5 29.713
      vertex -1.20208 -7.5 29.713
    endloop
  endfacet
  facet normal 0 2.22045e-016 1
    outer loop
      vertex -1.20208 -12.5 29.713
      vertex 1.20208 -12.5 29.713
      vertex -1.20208 -7.5 29.713
    endloop
  endfacet
  facet normal -0.207912 2.17192e-016 0.978148
    outer loop
      vertex 3.55369 -12.5 30.2128
      vertex 3.55369 -7.5 30.2128
      vertex 1.20208 -7.5 29.713
    endloop
  endfacet
  facet normal -0.207912 2.17192e-016 0.978148
    outer loop
      vertex 1.20208 -12.5 29.713
      vertex 3.55369 -12.5 30.2128
      vertex 1.20208 -7.5 29.713
    endloop
  endfacet
  facet normal -0.406737 2.02848e-016 0.913545
    outer loop
      vertex 5.75 -12.5 31.1907
      vertex 5.75 -7.5 31.1907
      vertex 3.55369 -7.5 30.2128
    endloop
  endfacet
  facet normal -0.406737 2.02848e-016 0.913545
    outer loop
      vertex 3.55369 -12.5 30.2128
      vertex 5.75 -12.5 31.1907
      vertex 3.55369 -7.5 30.2128
    endloop
  endfacet
  facet normal -0.587785 1.79638e-016 0.809017
    outer loop
      vertex 7.695 -12.5 32.6038
      vertex 7.695 -7.5 32.6038
      vertex 5.75 -7.5 31.1907
    endloop
  endfacet
  facet normal -0.587785 1.79638e-016 0.809017
    outer loop
      vertex 5.75 -12.5 31.1907
      vertex 7.695 -12.5 32.6038
      vertex 5.75 -7.5 31.1907
    endloop
  endfacet
  facet normal -0.743145 1.48577e-016 0.669131
    outer loop
      vertex 9.30369 -7.5 34.3905
      vertex 7.695 -7.5 32.6038
      vertex 9.30369 -12.5 34.3905
    endloop
  endfacet
  facet normal -0.743145 1.48577e-016 0.669131
    outer loop
      vertex 9.30369 -12.5 34.3905
      vertex 7.695 -7.5 32.6038
      vertex 7.695 -12.5 32.6038
    endloop
  endfacet
  facet normal -0.866025 1.11022e-016 0.5
    outer loop
      vertex 10.5058 -7.5 36.4725
      vertex 9.30369 -7.5 34.3905
      vertex 10.5058 -12.5 36.4725
    endloop
  endfacet
  facet normal -0.866025 1.11022e-016 0.5
    outer loop
      vertex 10.5058 -12.5 36.4725
      vertex 9.30369 -7.5 34.3905
      vertex 9.30369 -12.5 34.3905
    endloop
  endfacet
  facet normal -0.951057 6.86155e-017 0.309017
    outer loop
      vertex 11.2487 -7.5 38.759
      vertex 10.5058 -7.5 36.4725
      vertex 11.2487 -12.5 38.759
    endloop
  endfacet
  facet normal -0.951057 6.86155e-017 0.309017
    outer loop
      vertex 11.2487 -12.5 38.759
      vertex 10.5058 -7.5 36.4725
      vertex 10.5058 -12.5 36.4725
    endloop
  endfacet
  facet normal -0.994522 2.321e-017 0.104529
    outer loop
      vertex 11.5 -7.5 41.15
      vertex 11.2487 -7.5 38.759
      vertex 11.5 -12.5 41.15
    endloop
  endfacet
  facet normal -0.994522 2.321e-017 0.104529
    outer loop
      vertex 11.5 -12.5 41.15
      vertex 11.2487 -7.5 38.759
      vertex 11.2487 -12.5 38.759
    endloop
  endfacet
  facet normal -0.994522 -2.321e-017 -0.104529
    outer loop
      vertex 11.5 -7.5 41.15
      vertex 11.5 -12.5 41.15
      vertex 11.2487 -7.5 43.541
    endloop
  endfacet
  facet normal -0.994522 -2.321e-017 -0.104529
    outer loop
      vertex 11.2487 -7.5 43.541
      vertex 11.5 -12.5 41.15
      vertex 11.2487 -12.5 43.541
    endloop
  endfacet
  facet normal -0.951057 -6.86155e-017 -0.309017
    outer loop
      vertex 11.2487 -7.5 43.541
      vertex 11.2487 -12.5 43.541
      vertex 10.5058 -7.5 45.8275
    endloop
  endfacet
  facet normal -0.951057 -6.86155e-017 -0.309017
    outer loop
      vertex 10.5058 -7.5 45.8275
      vertex 11.2487 -12.5 43.541
      vertex 10.5058 -12.5 45.8275
    endloop
  endfacet
  facet normal -0.866025 -1.11022e-016 -0.5
    outer loop
      vertex 10.5058 -7.5 45.8275
      vertex 10.5058 -12.5 45.8275
      vertex 9.30369 -7.5 47.9095
    endloop
  endfacet
  facet normal -0.866025 -1.11022e-016 -0.5
    outer loop
      vertex 9.30369 -7.5 47.9095
      vertex 10.5058 -12.5 45.8275
      vertex 9.30369 -12.5 47.9095
    endloop
  endfacet
  facet normal -0.743145 -1.48577e-016 -0.669131
    outer loop
      vertex 9.30369 -7.5 47.9095
      vertex 9.30369 -12.5 47.9095
      vertex 7.695 -7.5 49.6962
    endloop
  endfacet
  facet normal -0.743145 -1.48577e-016 -0.669131
    outer loop
      vertex 7.695 -7.5 49.6962
      vertex 9.30369 -12.5 47.9095
      vertex 7.695 -12.5 49.6962
    endloop
  endfacet
  facet normal -0.587785 -1.79638e-016 -0.809017
    outer loop
      vertex 7.695 -7.5 49.6962
      vertex 7.695 -12.5 49.6962
      vertex 5.75 -7.5 51.1093
    endloop
  endfacet
  facet normal -0.587785 -1.79638e-016 -0.809017
    outer loop
      vertex 5.75 -7.5 51.1093
      vertex 7.695 -12.5 49.6962
      vertex 5.75 -12.5 51.1093
    endloop
  endfacet
  facet normal -0.406737 -2.02848e-016 -0.913545
    outer loop
      vertex 5.75 -7.5 51.1093
      vertex 5.75 -12.5 51.1093
      vertex 3.55369 -7.5 52.0871
    endloop
  endfacet
  facet normal -0.406737 -2.02848e-016 -0.913545
    outer loop
      vertex 3.55369 -7.5 52.0871
      vertex 5.75 -12.5 51.1093
      vertex 3.55369 -12.5 52.0871
    endloop
  endfacet
  facet normal -0.207912 -2.17192e-016 -0.978148
    outer loop
      vertex 3.55369 -7.5 52.0871
      vertex 3.55369 -12.5 52.0871
      vertex 1.20208 -7.5 52.587
    endloop
  endfacet
  facet normal -0.207912 -2.17192e-016 -0.978148
    outer loop
      vertex 1.20208 -7.5 52.587
      vertex 3.55369 -12.5 52.0871
      vertex 1.20208 -12.5 52.587
    endloop
  endfacet
  facet normal 0 -2.22045e-016 -1
    outer loop
      vertex 1.20208 -7.5 52.587
      vertex 1.20208 -12.5 52.587
      vertex -1.20208 -7.5 52.587
    endloop
  endfacet
  facet normal 0 -2.22045e-016 -1
    outer loop
      vertex -1.20208 -7.5 52.587
      vertex 1.20208 -12.5 52.587
      vertex -1.20208 -12.5 52.587
    endloop
  endfacet
  facet normal 0.207912 -2.17192e-016 -0.978148
    outer loop
      vertex -1.20208 -7.5 52.587
      vertex -1.20208 -12.5 52.587
      vertex -3.55369 -7.5 52.0871
    endloop
  endfacet
  facet normal 0.207912 -2.17192e-016 -0.978148
    outer loop
      vertex -3.55369 -7.5 52.0871
      vertex -1.20208 -12.5 52.587
      vertex -3.55369 -12.5 52.0871
    endloop
  endfacet
  facet normal 0.406737 -2.02848e-016 -0.913545
    outer loop
      vertex -3.55369 -7.5 52.0871
      vertex -3.55369 -12.5 52.0871
      vertex -5.75 -7.5 51.1093
    endloop
  endfacet
  facet normal 0.406737 -2.02848e-016 -0.913545
    outer loop
      vertex -5.75 -7.5 51.1093
      vertex -3.55369 -12.5 52.0871
      vertex -5.75 -12.5 51.1093
    endloop
  endfacet
  facet normal 0.587785 -1.79638e-016 -0.809017
    outer loop
      vertex -5.75 -7.5 51.1093
      vertex -5.75 -12.5 51.1093
      vertex -7.695 -7.5 49.6962
    endloop
  endfacet
  facet normal 0.587785 -1.79638e-016 -0.809017
    outer loop
      vertex -7.695 -7.5 49.6962
      vertex -5.75 -12.5 51.1093
      vertex -7.695 -12.5 49.6962
    endloop
  endfacet
  facet normal 0.743145 -1.48577e-016 -0.669131
    outer loop
      vertex -9.30369 -7.5 47.9095
      vertex -7.695 -7.5 49.6962
      vertex -7.695 -12.5 49.6962
    endloop
  endfacet
  facet normal 0.743145 -1.48577e-016 -0.669131
    outer loop
      vertex -9.30369 -12.5 47.9095
      vertex -9.30369 -7.5 47.9095
      vertex -7.695 -12.5 49.6962
    endloop
  endfacet
  facet normal 0.866025 -1.11022e-016 -0.5
    outer loop
      vertex -10.5058 -7.5 45.8275
      vertex -9.30369 -7.5 47.9095
      vertex -9.30369 -12.5 47.9095
    endloop
  endfacet
  facet normal 0.866025 -1.11022e-016 -0.5
    outer loop
      vertex -10.5058 -12.5 45.8275
      vertex -10.5058 -7.5 45.8275
      vertex -9.30369 -12.5 47.9095
    endloop
  endfacet
  facet normal 0.951057 -6.86155e-017 -0.309017
    outer loop
      vertex -11.2487 -7.5 43.541
      vertex -10.5058 -7.5 45.8275
      vertex -10.5058 -12.5 45.8275
    endloop
  endfacet
  facet normal 0.951057 -6.86155e-017 -0.309017
    outer loop
      vertex -11.2487 -12.5 43.541
      vertex -11.2487 -7.5 43.541
      vertex -10.5058 -12.5 45.8275
    endloop
  endfacet
  facet normal 0.994522 -2.321e-017 -0.104529
    outer loop
      vertex -11.5 -7.5 41.15
      vertex -11.2487 -7.5 43.541
      vertex -11.2487 -12.5 43.541
    endloop
  endfacet
  facet normal 0.994522 -2.321e-017 -0.104529
    outer loop
      vertex -11.5 -12.5 41.15
      vertex -11.5 -7.5 41.15
      vertex -11.2487 -12.5 43.541
    endloop
  endfacet
  facet normal 1 0 0
    outer loop
      vertex -2.49018 -7.5 9.09365
      vertex -2.49018 -7.5 10.9064
      vertex -2.49018 -12.5 10.9064
    endloop
  endfacet
  facet normal 1 0 0
    outer loop
      vertex -2.49018 -12.5 9.09365
      vertex -2.49018 -7.5 9.09365
      vertex -2.49018 -12.5 10.9064
    endloop
  endfacet
  facet normal 0.766045 1.42727e-016 0.642787
    outer loop
      vertex -1.325 -12.5 7.70503
      vertex -1.325 -7.5 7.70503
      vertex -2.49018 -7.5 9.09365
    endloop
  endfacet
  facet normal 0.766045 1.42727e-016 0.642787
    outer loop
      vertex -2.49018 -12.5 9.09365
      vertex -1.325 -12.5 7.70503
      vertex -2.49018 -7.5 9.09365
    endloop
  endfacet
  facet normal 0.173649 2.18671e-016 0.984808
    outer loop
      vertex 0.460168 -12.5 7.39026
      vertex 0.460168 -7.5 7.39026
      vertex -1.325 -7.5 7.70503
    endloop
  endfacet
  facet normal 0.173649 2.18671e-016 0.984808
    outer loop
      vertex -1.325 -12.5 7.70503
      vertex 0.460168 -12.5 7.39026
      vertex -1.325 -7.5 7.70503
    endloop
  endfacet
  facet normal -0.5 1.92296e-016 0.866025
    outer loop
      vertex 2.03002 -12.5 8.29661
      vertex 2.03002 -7.5 8.29661
      vertex 0.460168 -7.5 7.39026
    endloop
  endfacet
  facet normal -0.5 1.92296e-016 0.866025
    outer loop
      vertex 0.460168 -12.5 7.39026
      vertex 2.03002 -12.5 8.29661
      vertex 0.460168 -7.5 7.39026
    endloop
  endfacet
  facet normal -0.939693 7.59437e-017 0.34202
    outer loop
      vertex 2.65 -7.5 10
      vertex 2.03002 -7.5 8.29661
      vertex 2.65 -12.5 10
    endloop
  endfacet
  facet normal -0.939693 7.59437e-017 0.34202
    outer loop
      vertex 2.65 -12.5 10
      vertex 2.03002 -7.5 8.29661
      vertex 2.03002 -12.5 8.29661
    endloop
  endfacet
  facet normal -0.939693 -7.59437e-017 -0.34202
    outer loop
      vertex 2.65 -7.5 10
      vertex 2.65 -12.5 10
      vertex 2.03002 -7.5 11.7034
    endloop
  endfacet
  facet normal -0.939693 -7.59437e-017 -0.34202
    outer loop
      vertex 2.03002 -7.5 11.7034
      vertex 2.65 -12.5 10
      vertex 2.03002 -12.5 11.7034
    endloop
  endfacet
  facet normal -0.5 -1.92296e-016 -0.866025
    outer loop
      vertex 2.03002 -7.5 11.7034
      vertex 2.03002 -12.5 11.7034
      vertex 0.460168 -7.5 12.6097
    endloop
  endfacet
  facet normal -0.5 -1.92296e-016 -0.866025
    outer loop
      vertex 0.460168 -7.5 12.6097
      vertex 2.03002 -12.5 11.7034
      vertex 0.460168 -12.5 12.6097
    endloop
  endfacet
  facet normal 0.173649 -2.18671e-016 -0.984808
    outer loop
      vertex 0.460168 -7.5 12.6097
      vertex 0.460168 -12.5 12.6097
      vertex -1.325 -7.5 12.295
    endloop
  endfacet
  facet normal 0.173649 -2.18671e-016 -0.984808
    outer loop
      vertex -1.325 -7.5 12.295
      vertex 0.460168 -12.5 12.6097
      vertex -1.325 -12.5 12.295
    endloop
  endfacet
  facet normal 0.766045 -1.42727e-016 -0.642787
    outer loop
      vertex -2.49018 -7.5 10.9064
      vertex -1.325 -7.5 12.295
      vertex -1.325 -12.5 12.295
    endloop
  endfacet
  facet normal 0.766045 -1.42727e-016 -0.642787
    outer loop
      vertex -2.49018 -12.5 10.9064
      vertex -2.49018 -7.5 10.9064
      vertex -1.325 -12.5 12.295
    endloop
  endfacet
  facet normal 0.866025 1.11022e-016 0.5
    outer loop
      vertex 14.65 -12.5 24.1778
      vertex 14.65 -7.5 24.1778
      vertex 13.8 -7.5 25.65
    endloop
  endfacet
  facet normal 0.866025 1.11022e-016 0.5
    outer loop
      vertex 13.8 -12.5 25.65
      vertex 14.65 -12.5 24.1778
      vertex 13.8 -7.5 25.65
    endloop
  endfacet
  facet normal 0 2.22045e-016 1
    outer loop
      vertex 16.35 -12.5 24.1778
      vertex 16.35 -7.5 24.1778
      vertex 14.65 -7.5 24.1778
    endloop
  endfacet
  facet normal 0 2.22045e-016 1
    outer loop
      vertex 14.65 -12.5 24.1778
      vertex 16.35 -12.5 24.1778
      vertex 14.65 -7.5 24.1778
    endloop
  endfacet
  facet normal -0.866025 1.11022e-016 0.5
    outer loop
      vertex 17.2 -7.5 25.65
      vertex 16.35 -7.5 24.1778
      vertex 17.2 -12.5 25.65
    endloop
  endfacet
  facet normal -0.866025 1.11022e-016 0.5
    outer loop
      vertex 17.2 -12.5 25.65
      vertex 16.35 -7.5 24.1778
      vertex 16.35 -12.5 24.1778
    endloop
  endfacet
  facet normal -0.866025 -1.11022e-016 -0.5
    outer loop
      vertex 17.2 -7.5 25.65
      vertex 17.2 -12.5 25.65
      vertex 16.35 -7.5 27.1222
    endloop
  endfacet
  facet normal -0.866025 -1.11022e-016 -0.5
    outer loop
      vertex 16.35 -7.5 27.1222
      vertex 17.2 -12.5 25.65
      vertex 16.35 -12.5 27.1222
    endloop
  endfacet
  facet normal 0 -2.22045e-016 -1
    outer loop
      vertex 16.35 -7.5 27.1222
      vertex 16.35 -12.5 27.1222
      vertex 14.65 -7.5 27.1222
    endloop
  endfacet
  facet normal 0 -2.22045e-016 -1
    outer loop
      vertex 14.65 -7.5 27.1222
      vertex 16.35 -12.5 27.1222
      vertex 14.65 -12.5 27.1222
    endloop
  endfacet
  facet normal 0.866025 -1.11022e-016 -0.5
    outer loop
      vertex 13.8 -7.5 25.65
      vertex 14.65 -7.5 27.1222
      vertex 14.65 -12.5 27.1222
    endloop
  endfacet
  facet normal 0.866025 -1.11022e-016 -0.5
    outer loop
      vertex 13.8 -12.5 25.65
      vertex 13.8 -7.5 25.65
      vertex 14.65 -12.5 27.1222
    endloop
  endfacet
  facet normal 0.866025 1.11022e-016 0.5
    outer loop
      vertex 14.65 -12.5 55.5278
      vertex 14.65 -7.5 55.5278
      vertex 13.8 -7.5 57
    endloop
  endfacet
  facet normal 0.866025 1.11022e-016 0.5
    outer loop
      vertex 13.8 -12.5 57
      vertex 14.65 -12.5 55.5278
      vertex 13.8 -7.5 57
    endloop
  endfacet
  facet normal 0 2.22045e-016 1
    outer loop
      vertex 16.35 -12.5 55.5278
      vertex 16.35 -7.5 55.5278
      vertex 14.65 -7.5 55.5278
    endloop
  endfacet
  facet normal 0 2.22045e-016 1
    outer loop
      vertex 14.65 -12.5 55.5278
      vertex 16.35 -12.5 55.5278
      vertex 14.65 -7.5 55.5278
    endloop
  endfacet
  facet normal -0.866025 1.11022e-016 0.5
    outer loop
      vertex 17.2 -7.5 57
      vertex 16.35 -7.5 55.5278
      vertex 17.2 -12.5 57
    endloop
  endfacet
  facet normal -0.866025 1.11022e-016 0.5
    outer loop
      vertex 17.2 -12.5 57
      vertex 16.35 -7.5 55.5278
      vertex 16.35 -12.5 55.5278
    endloop
  endfacet
  facet normal -0.866025 -1.11022e-016 -0.5
    outer loop
      vertex 17.2 -7.5 57
      vertex 17.2 -12.5 57
      vertex 16.35 -7.5 58.4722
    endloop
  endfacet
  facet normal -0.866025 -1.11022e-016 -0.5
    outer loop
      vertex 16.35 -7.5 58.4722
      vertex 17.2 -12.5 57
      vertex 16.35 -12.5 58.4722
    endloop
  endfacet
  facet normal 0 -2.22045e-016 -1
    outer loop
      vertex 16.35 -7.5 58.4722
      vertex 16.35 -12.5 58.4722
      vertex 14.65 -7.5 58.4722
    endloop
  endfacet
  facet normal 0 -2.22045e-016 -1
    outer loop
      vertex 14.65 -7.5 58.4722
      vertex 16.35 -12.5 58.4722
      vertex 14.65 -12.5 58.4722
    endloop
  endfacet
  facet normal 0.866025 -1.11022e-016 -0.5
    outer loop
      vertex 13.8 -7.5 57
      vertex 14.65 -7.5 58.4722
      vertex 14.65 -12.5 58.4722
    endloop
  endfacet
  facet normal 0.866025 -1.11022e-016 -0.5
    outer loop
      vertex 13.8 -12.5 57
      vertex 13.8 -7.5 57
      vertex 14.65 -12.5 58.4722
    endloop
  endfacet
  facet normal 0.766045 1.42727e-016 0.642787
    outer loop
      vertex 32.875 -12.5 7.70503
      vertex 32.875 -7.5 7.70503
      vertex 31.7098 -7.5 9.09365
    endloop
  endfacet
  facet normal 0.766045 1.42727e-016 0.642787
    outer loop
      vertex 31.7098 -12.5 9.09365
      vertex 32.875 -12.5 7.70503
      vertex 31.7098 -7.5 9.09365
    endloop
  endfacet
  facet normal 1 0 0
    outer loop
      vertex 31.7098 -7.5 9.09365
      vertex 31.7098 -7.5 10.9064
      vertex 31.7098 -12.5 10.9064
    endloop
  endfacet
  facet normal 1 0 0
    outer loop
      vertex 31.7098 -12.5 9.09365
      vertex 31.7098 -7.5 9.09365
      vertex 31.7098 -12.5 10.9064
    endloop
  endfacet
  facet normal 0.173649 2.18671e-016 0.984808
    outer loop
      vertex 34.6602 -12.5 7.39026
      vertex 34.6602 -7.5 7.39026
      vertex 32.875 -7.5 7.70503
    endloop
  endfacet
  facet normal 0.173649 2.18671e-016 0.984808
    outer loop
      vertex 32.875 -12.5 7.70503
      vertex 34.6602 -12.5 7.39026
      vertex 32.875 -7.5 7.70503
    endloop
  endfacet
  facet normal -0.5 1.92296e-016 0.866025
    outer loop
      vertex 36.23 -12.5 8.29661
      vertex 36.23 -7.5 8.29661
      vertex 34.6602 -7.5 7.39026
    endloop
  endfacet
  facet normal -0.5 1.92296e-016 0.866025
    outer loop
      vertex 34.6602 -12.5 7.39026
      vertex 36.23 -12.5 8.29661
      vertex 34.6602 -7.5 7.39026
    endloop
  endfacet
  facet normal -0.939693 7.59437e-017 0.34202
    outer loop
      vertex 36.85 -7.5 10
      vertex 36.23 -7.5 8.29661
      vertex 36.85 -12.5 10
    endloop
  endfacet
  facet normal -0.939693 7.59437e-017 0.34202
    outer loop
      vertex 36.85 -12.5 10
      vertex 36.23 -7.5 8.29661
      vertex 36.23 -12.5 8.29661
    endloop
  endfacet
  facet normal -0.939693 -7.59437e-017 -0.34202
    outer loop
      vertex 36.85 -7.5 10
      vertex 36.85 -12.5 10
      vertex 36.23 -7.5 11.7034
    endloop
  endfacet
  facet normal -0.939693 -7.59437e-017 -0.34202
    outer loop
      vertex 36.23 -7.5 11.7034
      vertex 36.85 -12.5 10
      vertex 36.23 -12.5 11.7034
    endloop
  endfacet
  facet normal -0.5 -1.92296e-016 -0.866025
    outer loop
      vertex 36.23 -7.5 11.7034
      vertex 36.23 -12.5 11.7034
      vertex 34.6602 -7.5 12.6097
    endloop
  endfacet
  facet normal -0.5 -1.92296e-016 -0.866025
    outer loop
      vertex 34.6602 -7.5 12.6097
      vertex 36.23 -12.5 11.7034
      vertex 34.6602 -12.5 12.6097
    endloop
  endfacet
  facet normal 0.173649 -2.18671e-016 -0.984808
    outer loop
      vertex 34.6602 -7.5 12.6097
      vertex 34.6602 -12.5 12.6097
      vertex 32.875 -7.5 12.295
    endloop
  endfacet
  facet normal 0.173649 -2.18671e-016 -0.984808
    outer loop
      vertex 32.875 -7.5 12.295
      vertex 34.6602 -12.5 12.6097
      vertex 32.875 -12.5 12.295
    endloop
  endfacet
  facet normal 0.766045 -1.42727e-016 -0.642787
    outer loop
      vertex 31.7098 -7.5 10.9064
      vertex 32.875 -7.5 12.295
      vertex 32.875 -12.5 12.295
    endloop
  endfacet
  facet normal 0.766045 -1.42727e-016 -0.642787
    outer loop
      vertex 31.7098 -12.5 10.9064
      vertex 31.7098 -7.5 10.9064
      vertex 32.875 -12.5 12.295
    endloop
  endfacet
  facet normal 0 0 -1
    outer loop
      vertex 32.875 0.205033 20.5
      vertex 44.15 -7.5 20.5
      vertex 21.15 -7.5 20.5
    endloop
  endfacet
  facet normal 0 0 -1
    outer loop
      vertex 36.23 0.796613 20.5
      vertex 44.15 -7.5 20.5
      vertex 34.6602 -0.109741 20.5
    endloop
  endfacet
  facet normal 0 0 -1
    outer loop
      vertex 21.15 12.5 20.5
      vertex 31.7098 1.59365 20.5
      vertex 21.15 -7.5 20.5
    endloop
  endfacet
  facet normal 0 0 -1
    outer loop
      vertex 31.7098 1.59365 20.5
      vertex 32.875 0.205033 20.5
      vertex 21.15 -7.5 20.5
    endloop
  endfacet
  facet normal 0 0 -1
    outer loop
      vertex 34.6602 -0.109741 20.5
      vertex 44.15 -7.5 20.5
      vertex 32.875 0.205033 20.5
    endloop
  endfacet
  facet normal 0 0 -1
    outer loop
      vertex 44.15 12.5 20.5
      vertex 44.15 -7.5 20.5
      vertex 36.23 0.796613 20.5
    endloop
  endfacet
  facet normal 0 0 -1
    outer loop
      vertex 44.15 12.5 20.5
      vertex 36.23 0.796613 20.5
      vertex 36.85 2.5 20.5
    endloop
  endfacet
  facet normal 0 0 -1
    outer loop
      vertex 44.15 12.5 20.5
      vertex 36.85 2.5 20.5
      vertex 36.23 4.20339 20.5
    endloop
  endfacet
  facet normal 0 0 -1
    outer loop
      vertex 44.15 12.5 20.5
      vertex 36.23 4.20339 20.5
      vertex 34.6602 5.10974 20.5
    endloop
  endfacet
  facet normal 0 0 -1
    outer loop
      vertex 44.15 12.5 20.5
      vertex 34.6602 5.10974 20.5
      vertex 21.15 12.5 20.5
    endloop
  endfacet
  facet normal 0 0 -1
    outer loop
      vertex 31.7098 3.40635 20.5
      vertex 21.15 12.5 20.5
      vertex 32.875 4.79497 20.5
    endloop
  endfacet
  facet normal 0 0 -1
    outer loop
      vertex 32.875 4.79497 20.5
      vertex 21.15 12.5 20.5
      vertex 34.6602 5.10974 20.5
    endloop
  endfacet
  facet normal 0 0 -1
    outer loop
      vertex 31.7098 1.59365 20.5
      vertex 21.15 12.5 20.5
      vertex 31.7098 3.40635 20.5
    endloop
  endfacet
  facet normal -1 0 0
    outer loop
      vertex 21.15 12.5 62.3
      vertex 21.15 12.5 20.5
      vertex 21.15 -7.5 62.3
    endloop
  endfacet
  facet normal -1 0 0
    outer loop
      vertex 21.15 -7.5 62.3
      vertex 21.15 12.5 20.5
      vertex 21.15 -7.5 20.5
    endloop
  endfacet
  facet normal 1 0 0
    outer loop
      vertex -21.15 12.5 20.5
      vertex -21.15 12.5 62.3
      vertex -21.15 -7.5 62.3
    endloop
  endfacet
  facet normal 1 0 0
    outer loop
      vertex -21.15 -7.5 20.5
      vertex -21.15 12.5 20.5
      vertex -21.15 -7.5 62.3
    endloop
  endfacet
  facet normal 1 0 0
    outer loop
      vertex -36.6902 3.40635 20.5
      vertex -36.6902 3.40635 25
      vertex -36.6902 1.59365 25
    endloop
  endfacet
  facet normal 1 0 0
    outer loop
      vertex -36.6902 1.59365 20.5
      vertex -36.6902 3.40635 20.5
      vertex -36.6902 1.59365 25
    endloop
  endfacet
  facet normal 0.766045 0.642787 0
    outer loop
      vertex -36.6902 1.59365 25
      vertex -35.525 0.205033 25
      vertex -35.525 0.205033 20.5
    endloop
  endfacet
  facet normal 0.766045 0.642787 0
    outer loop
      vertex -36.6902 1.59365 20.5
      vertex -36.6902 1.59365 25
      vertex -35.525 0.205033 20.5
    endloop
  endfacet
  facet normal 0.766045 -0.642787 0
    outer loop
      vertex -35.525 4.79497 20.5
      vertex -35.525 4.79497 25
      vertex -36.6902 3.40635 25
    endloop
  endfacet
  facet normal 0.766045 -0.642787 0
    outer loop
      vertex -36.6902 3.40635 20.5
      vertex -35.525 4.79497 20.5
      vertex -36.6902 3.40635 25
    endloop
  endfacet
  facet normal 0.173649 -0.984808 0
    outer loop
      vertex -33.7398 5.10974 20.5
      vertex -33.7398 5.10974 25
      vertex -35.525 4.79497 25
    endloop
  endfacet
  facet normal 0.173649 -0.984808 0
    outer loop
      vertex -35.525 4.79497 20.5
      vertex -33.7398 5.10974 20.5
      vertex -35.525 4.79497 25
    endloop
  endfacet
  facet normal -0.5 -0.866025 0
    outer loop
      vertex -32.17 4.20339 20.5
      vertex -32.17 4.20339 25
      vertex -33.7398 5.10974 25
    endloop
  endfacet
  facet normal -0.5 -0.866025 0
    outer loop
      vertex -33.7398 5.10974 20.5
      vertex -32.17 4.20339 20.5
      vertex -33.7398 5.10974 25
    endloop
  endfacet
  facet normal -0.939693 -0.34202 0
    outer loop
      vertex -31.55 2.5 25
      vertex -32.17 4.20339 25
      vertex -31.55 2.5 20.5
    endloop
  endfacet
  facet normal -0.939693 -0.34202 0
    outer loop
      vertex -31.55 2.5 20.5
      vertex -32.17 4.20339 25
      vertex -32.17 4.20339 20.5
    endloop
  endfacet
  facet normal -0.939693 0.34202 0
    outer loop
      vertex -31.55 2.5 25
      vertex -31.55 2.5 20.5
      vertex -32.17 0.796613 25
    endloop
  endfacet
  facet normal -0.939693 0.34202 0
    outer loop
      vertex -32.17 0.796613 25
      vertex -31.55 2.5 20.5
      vertex -32.17 0.796613 20.5
    endloop
  endfacet
  facet normal -0.5 0.866025 0
    outer loop
      vertex -32.17 0.796613 25
      vertex -32.17 0.796613 20.5
      vertex -33.7398 -0.109741 25
    endloop
  endfacet
  facet normal -0.5 0.866025 0
    outer loop
      vertex -33.7398 -0.109741 25
      vertex -32.17 0.796613 20.5
      vertex -33.7398 -0.109741 20.5
    endloop
  endfacet
  facet normal 0.173649 0.984808 0
    outer loop
      vertex -33.7398 -0.109741 25
      vertex -33.7398 -0.109741 20.5
      vertex -35.525 0.205033 25
    endloop
  endfacet
  facet normal 0.173649 0.984808 0
    outer loop
      vertex -35.525 0.205033 25
      vertex -33.7398 -0.109741 20.5
      vertex -35.525 0.205033 20.5
    endloop
  endfacet
  facet normal 0 1 0
    outer loop
      vertex 44.15 12.5 25
      vertex 44.15 12.5 20.5
      vertex 25.9 12.5 25
    endloop
  endfacet
  facet normal 0 1 0
    outer loop
      vertex 21.15 12.5 20.5
      vertex 21.15 12.5 62.3
      vertex 25.9 12.5 25
    endloop
  endfacet
  facet normal 0 1 0
    outer loop
      vertex 21.15 12.5 20.5
      vertex 25.9 12.5 25
      vertex 44.15 12.5 20.5
    endloop
  endfacet
  facet normal 0 1 0
    outer loop
      vertex 25.9 12.5 25
      vertex 21.15 12.5 62.3
      vertex 25.9 12.5 62.3
    endloop
  endfacet
  facet normal 0.766045 -0.642787 0
    outer loop
      vertex 32.875 4.79497 20.5
      vertex 32.875 4.79497 25
      vertex 31.7098 3.40635 25
    endloop
  endfacet
  facet normal 0.766045 -0.642787 0
    outer loop
      vertex 31.7098 3.40635 20.5
      vertex 32.875 4.79497 20.5
      vertex 31.7098 3.40635 25
    endloop
  endfacet
  facet normal 1 0 0
    outer loop
      vertex 31.7098 3.40635 20.5
      vertex 31.7098 3.40635 25
      vertex 31.7098 1.59365 25
    endloop
  endfacet
  facet normal 1 0 0
    outer loop
      vertex 31.7098 1.59365 20.5
      vertex 31.7098 3.40635 20.5
      vertex 31.7098 1.59365 25
    endloop
  endfacet
  facet normal 0.766045 0.642787 0
    outer loop
      vertex 31.7098 1.59365 25
      vertex 32.875 0.205033 25
      vertex 32.875 0.205033 20.5
    endloop
  endfacet
  facet normal 0.766045 0.642787 0
    outer loop
      vertex 31.7098 1.59365 20.5
      vertex 31.7098 1.59365 25
      vertex 32.875 0.205033 20.5
    endloop
  endfacet
  facet normal 0.173649 0.984808 0
    outer loop
      vertex 34.6602 -0.109741 25
      vertex 34.6602 -0.109741 20.5
      vertex 32.875 0.205033 25
    endloop
  endfacet
  facet normal 0.173649 0.984808 0
    outer loop
      vertex 32.875 0.205033 25
      vertex 34.6602 -0.109741 20.5
      vertex 32.875 0.205033 20.5
    endloop
  endfacet
  facet normal -0.5 0.866025 0
    outer loop
      vertex 36.23 0.796613 25
      vertex 36.23 0.796613 20.5
      vertex 34.6602 -0.109741 25
    endloop
  endfacet
  facet normal -0.5 0.866025 0
    outer loop
      vertex 34.6602 -0.109741 25
      vertex 36.23 0.796613 20.5
      vertex 34.6602 -0.109741 20.5
    endloop
  endfacet
  facet normal -0.939693 0.34202 0
    outer loop
      vertex 36.85 2.5 25
      vertex 36.85 2.5 20.5
      vertex 36.23 0.796613 25
    endloop
  endfacet
  facet normal -0.939693 0.34202 0
    outer loop
      vertex 36.23 0.796613 25
      vertex 36.85 2.5 20.5
      vertex 36.23 0.796613 20.5
    endloop
  endfacet
  facet normal -0.939693 -0.34202 0
    outer loop
      vertex 36.85 2.5 25
      vertex 36.23 4.20339 25
      vertex 36.85 2.5 20.5
    endloop
  endfacet
  facet normal -0.939693 -0.34202 0
    outer loop
      vertex 36.85 2.5 20.5
      vertex 36.23 4.20339 25
      vertex 36.23 4.20339 20.5
    endloop
  endfacet
  facet normal -0.5 -0.866025 0
    outer loop
      vertex 36.23 4.20339 20.5
      vertex 36.23 4.20339 25
      vertex 34.6602 5.10974 25
    endloop
  endfacet
  facet normal -0.5 -0.866025 0
    outer loop
      vertex 34.6602 5.10974 20.5
      vertex 36.23 4.20339 20.5
      vertex 34.6602 5.10974 25
    endloop
  endfacet
  facet normal 0.173649 -0.984808 0
    outer loop
      vertex 34.6602 5.10974 20.5
      vertex 34.6602 5.10974 25
      vertex 32.875 4.79497 25
    endloop
  endfacet
  facet normal 0.173649 -0.984808 0
    outer loop
      vertex 32.875 4.79497 20.5
      vertex 34.6602 5.10974 20.5
      vertex 32.875 4.79497 25
    endloop
  endfacet
endsolid OpenSCAD_Model
